%FSLAX45Y45*%
G04 Gerber Fmt 4.5, Leading zero omitted, Abs format (unit mm)*
G04 Created by KiCad (PCBNEW 4.0.5) date 04/19/17 22:25:39*
%MOMM*%
%LPD*%
G01*
G04 APERTURE LIST*
%ADD10C,0.127000*%
%ADD11C,0.100000*%
%ADD12C,0.200000*%
%ADD13C,0.300000*%
G04 APERTURE END LIST*
D10*
D11*
X3175000Y-6350000D02*
X3175000Y-17145000D01*
X16256000Y-6350000D02*
X3175000Y-6350000D01*
X16256000Y-17145000D02*
X16256000Y-6350000D01*
X3175000Y-17145000D02*
X16256000Y-17145000D01*
D12*
X5187950Y-11156950D02*
X5226050Y-11195050D01*
X5226050Y-11156950D02*
X5187950Y-11195050D01*
X5314950Y-9886950D02*
X5353050Y-9925050D01*
X5353050Y-9886950D02*
X5314950Y-9925050D01*
X5314950Y-11410950D02*
X5353050Y-11449050D01*
X5353050Y-11410950D02*
X5314950Y-11449050D01*
X6711950Y-13442950D02*
X6750050Y-13481050D01*
X6750050Y-13442950D02*
X6711950Y-13481050D01*
X7854950Y-12299950D02*
X7893050Y-12338050D01*
X7893050Y-12299950D02*
X7854950Y-12338050D01*
X8108950Y-12045950D02*
X8147050Y-12084050D01*
X8147050Y-12045950D02*
X8108950Y-12084050D01*
X8997950Y-11664950D02*
X9036050Y-11703050D01*
X9036050Y-11664950D02*
X8997950Y-11703050D01*
X9124950Y-13696950D02*
X9163050Y-13735050D01*
X9163050Y-13696950D02*
X9124950Y-13735050D01*
X9124950Y-15474950D02*
X9163050Y-15513050D01*
X9163050Y-15474950D02*
X9124950Y-15513050D01*
X9251950Y-13442950D02*
X9290050Y-13481050D01*
X9290050Y-13442950D02*
X9251950Y-13481050D01*
X9251950Y-14077950D02*
X9290050Y-14116050D01*
X9290050Y-14077950D02*
X9251950Y-14116050D01*
X9505950Y-15982950D02*
X9544050Y-16021050D01*
X9544050Y-15982950D02*
X9505950Y-16021050D01*
X9632950Y-10648950D02*
X9671050Y-10687050D01*
X9671050Y-10648950D02*
X9632950Y-10687050D01*
X9632950Y-11791950D02*
X9671050Y-11830050D01*
X9671050Y-11791950D02*
X9632950Y-11830050D01*
X9886950Y-7854950D02*
X9925050Y-7893050D01*
X9925050Y-7854950D02*
X9886950Y-7893050D01*
X10013950Y-10267950D02*
X10052050Y-10306050D01*
X10052050Y-10267950D02*
X10013950Y-10306050D01*
X10140950Y-10521950D02*
X10179050Y-10560050D01*
X10179050Y-10521950D02*
X10140950Y-10560050D01*
X10140950Y-11664950D02*
X10179050Y-11703050D01*
X10179050Y-11664950D02*
X10140950Y-11703050D01*
X10140950Y-12807950D02*
X10179050Y-12846050D01*
X10179050Y-12807950D02*
X10140950Y-12846050D01*
X10267950Y-10775950D02*
X10306050Y-10814050D01*
X10306050Y-10775950D02*
X10267950Y-10814050D01*
X10521950Y-8997950D02*
X10560050Y-9036050D01*
X10560050Y-8997950D02*
X10521950Y-9036050D01*
X10521950Y-10775950D02*
X10560050Y-10814050D01*
X10560050Y-10775950D02*
X10521950Y-10814050D01*
X10648950Y-11156950D02*
X10687050Y-11195050D01*
X10687050Y-11156950D02*
X10648950Y-11195050D01*
X10775950Y-11791950D02*
X10814050Y-11830050D01*
X10814050Y-11791950D02*
X10775950Y-11830050D01*
X11410950Y-14966950D02*
X11449050Y-15005050D01*
X11449050Y-14966950D02*
X11410950Y-15005050D01*
X11537950Y-10902950D02*
X11576050Y-10941050D01*
X11576050Y-10902950D02*
X11537950Y-10941050D01*
X11664950Y-10902950D02*
X11703050Y-10941050D01*
X11703050Y-10902950D02*
X11664950Y-10941050D01*
X11918950Y-11791950D02*
X11957050Y-11830050D01*
X11957050Y-11791950D02*
X11918950Y-11830050D01*
X12172950Y-14331950D02*
X12211050Y-14370050D01*
X12211050Y-14331950D02*
X12172950Y-14370050D01*
X13188950Y-13061950D02*
X13227050Y-13100050D01*
X13227050Y-13061950D02*
X13188950Y-13100050D01*
X14204950Y-12807950D02*
X14243050Y-12846050D01*
X14243050Y-12807950D02*
X14204950Y-12846050D01*
X3723000Y-14478000D02*
G75*
G03X3723000Y-14478000I-40000J0D01*
G01*
X3723000Y-15240000D02*
G75*
G03X3723000Y-15240000I-40000J0D01*
G01*
X3977000Y-14478000D02*
G75*
G03X3977000Y-14478000I-40000J0D01*
G01*
X3977000Y-15240000D02*
G75*
G03X3977000Y-15240000I-40000J0D01*
G01*
X4231000Y-14478000D02*
G75*
G03X4231000Y-14478000I-40000J0D01*
G01*
X4231000Y-15240000D02*
G75*
G03X4231000Y-15240000I-40000J0D01*
G01*
X4485000Y-14478000D02*
G75*
G03X4485000Y-14478000I-40000J0D01*
G01*
X4485000Y-15240000D02*
G75*
G03X4485000Y-15240000I-40000J0D01*
G01*
X4739000Y-14478000D02*
G75*
G03X4739000Y-14478000I-40000J0D01*
G01*
X4739000Y-15240000D02*
G75*
G03X4739000Y-15240000I-40000J0D01*
G01*
X4993000Y-14478000D02*
G75*
G03X4993000Y-14478000I-40000J0D01*
G01*
X4993000Y-15240000D02*
G75*
G03X4993000Y-15240000I-40000J0D01*
G01*
X5247000Y-14478000D02*
G75*
G03X5247000Y-14478000I-40000J0D01*
G01*
X5247000Y-15240000D02*
G75*
G03X5247000Y-15240000I-40000J0D01*
G01*
X5501000Y-14478000D02*
G75*
G03X5501000Y-14478000I-40000J0D01*
G01*
X5501000Y-15240000D02*
G75*
G03X5501000Y-15240000I-40000J0D01*
G01*
X5755000Y-14478000D02*
G75*
G03X5755000Y-14478000I-40000J0D01*
G01*
X5755000Y-15240000D02*
G75*
G03X5755000Y-15240000I-40000J0D01*
G01*
X5882000Y-7366000D02*
G75*
G03X5882000Y-7366000I-40000J0D01*
G01*
X5882000Y-7620000D02*
G75*
G03X5882000Y-7620000I-40000J0D01*
G01*
X5882000Y-7874000D02*
G75*
G03X5882000Y-7874000I-40000J0D01*
G01*
X5882000Y-8128000D02*
G75*
G03X5882000Y-8128000I-40000J0D01*
G01*
X5882000Y-8382000D02*
G75*
G03X5882000Y-8382000I-40000J0D01*
G01*
X5882000Y-8636000D02*
G75*
G03X5882000Y-8636000I-40000J0D01*
G01*
X5882000Y-8890000D02*
G75*
G03X5882000Y-8890000I-40000J0D01*
G01*
X5882000Y-9144000D02*
G75*
G03X5882000Y-9144000I-40000J0D01*
G01*
X5882000Y-9398000D02*
G75*
G03X5882000Y-9398000I-40000J0D01*
G01*
X5882000Y-9652000D02*
G75*
G03X5882000Y-9652000I-40000J0D01*
G01*
X5882000Y-9906000D02*
G75*
G03X5882000Y-9906000I-40000J0D01*
G01*
X5882000Y-10160000D02*
G75*
G03X5882000Y-10160000I-40000J0D01*
G01*
X5882000Y-10414000D02*
G75*
G03X5882000Y-10414000I-40000J0D01*
G01*
X5882000Y-10668000D02*
G75*
G03X5882000Y-10668000I-40000J0D01*
G01*
X5882000Y-10922000D02*
G75*
G03X5882000Y-10922000I-40000J0D01*
G01*
X5882000Y-11176000D02*
G75*
G03X5882000Y-11176000I-40000J0D01*
G01*
X5882000Y-11430000D02*
G75*
G03X5882000Y-11430000I-40000J0D01*
G01*
X5882000Y-11684000D02*
G75*
G03X5882000Y-11684000I-40000J0D01*
G01*
X5882000Y-11938000D02*
G75*
G03X5882000Y-11938000I-40000J0D01*
G01*
X5882000Y-12192000D02*
G75*
G03X5882000Y-12192000I-40000J0D01*
G01*
X6009000Y-14478000D02*
G75*
G03X6009000Y-14478000I-40000J0D01*
G01*
X6009000Y-15240000D02*
G75*
G03X6009000Y-15240000I-40000J0D01*
G01*
X6771000Y-14478000D02*
G75*
G03X6771000Y-14478000I-40000J0D01*
G01*
X6771000Y-15240000D02*
G75*
G03X6771000Y-15240000I-40000J0D01*
G01*
X7025000Y-14478000D02*
G75*
G03X7025000Y-14478000I-40000J0D01*
G01*
X7025000Y-15240000D02*
G75*
G03X7025000Y-15240000I-40000J0D01*
G01*
X7152000Y-12573000D02*
G75*
G03X7152000Y-12573000I-40000J0D01*
G01*
X7152000Y-13335000D02*
G75*
G03X7152000Y-13335000I-40000J0D01*
G01*
X7279000Y-14478000D02*
G75*
G03X7279000Y-14478000I-40000J0D01*
G01*
X7279000Y-15240000D02*
G75*
G03X7279000Y-15240000I-40000J0D01*
G01*
X7406000Y-7366000D02*
G75*
G03X7406000Y-7366000I-40000J0D01*
G01*
X7406000Y-7620000D02*
G75*
G03X7406000Y-7620000I-40000J0D01*
G01*
X7406000Y-7874000D02*
G75*
G03X7406000Y-7874000I-40000J0D01*
G01*
X7406000Y-8128000D02*
G75*
G03X7406000Y-8128000I-40000J0D01*
G01*
X7406000Y-8382000D02*
G75*
G03X7406000Y-8382000I-40000J0D01*
G01*
X7406000Y-8636000D02*
G75*
G03X7406000Y-8636000I-40000J0D01*
G01*
X7406000Y-8890000D02*
G75*
G03X7406000Y-8890000I-40000J0D01*
G01*
X7406000Y-9144000D02*
G75*
G03X7406000Y-9144000I-40000J0D01*
G01*
X7406000Y-9398000D02*
G75*
G03X7406000Y-9398000I-40000J0D01*
G01*
X7406000Y-9652000D02*
G75*
G03X7406000Y-9652000I-40000J0D01*
G01*
X7406000Y-9906000D02*
G75*
G03X7406000Y-9906000I-40000J0D01*
G01*
X7406000Y-10160000D02*
G75*
G03X7406000Y-10160000I-40000J0D01*
G01*
X7406000Y-10414000D02*
G75*
G03X7406000Y-10414000I-40000J0D01*
G01*
X7406000Y-10668000D02*
G75*
G03X7406000Y-10668000I-40000J0D01*
G01*
X7406000Y-10922000D02*
G75*
G03X7406000Y-10922000I-40000J0D01*
G01*
X7406000Y-11176000D02*
G75*
G03X7406000Y-11176000I-40000J0D01*
G01*
X7406000Y-11430000D02*
G75*
G03X7406000Y-11430000I-40000J0D01*
G01*
X7406000Y-11684000D02*
G75*
G03X7406000Y-11684000I-40000J0D01*
G01*
X7406000Y-11938000D02*
G75*
G03X7406000Y-11938000I-40000J0D01*
G01*
X7406000Y-12192000D02*
G75*
G03X7406000Y-12192000I-40000J0D01*
G01*
X7406000Y-12573000D02*
G75*
G03X7406000Y-12573000I-40000J0D01*
G01*
X7406000Y-13335000D02*
G75*
G03X7406000Y-13335000I-40000J0D01*
G01*
X7533000Y-14478000D02*
G75*
G03X7533000Y-14478000I-40000J0D01*
G01*
X7533000Y-15240000D02*
G75*
G03X7533000Y-15240000I-40000J0D01*
G01*
X7660000Y-12573000D02*
G75*
G03X7660000Y-12573000I-40000J0D01*
G01*
X7660000Y-13335000D02*
G75*
G03X7660000Y-13335000I-40000J0D01*
G01*
X7787000Y-14478000D02*
G75*
G03X7787000Y-14478000I-40000J0D01*
G01*
X7787000Y-15240000D02*
G75*
G03X7787000Y-15240000I-40000J0D01*
G01*
X7914000Y-12573000D02*
G75*
G03X7914000Y-12573000I-40000J0D01*
G01*
X7914000Y-13335000D02*
G75*
G03X7914000Y-13335000I-40000J0D01*
G01*
X8041000Y-14478000D02*
G75*
G03X8041000Y-14478000I-40000J0D01*
G01*
X8041000Y-15240000D02*
G75*
G03X8041000Y-15240000I-40000J0D01*
G01*
X8168000Y-12573000D02*
G75*
G03X8168000Y-12573000I-40000J0D01*
G01*
X8168000Y-13335000D02*
G75*
G03X8168000Y-13335000I-40000J0D01*
G01*
X8295000Y-14478000D02*
G75*
G03X8295000Y-14478000I-40000J0D01*
G01*
X8295000Y-15240000D02*
G75*
G03X8295000Y-15240000I-40000J0D01*
G01*
X8422000Y-12573000D02*
G75*
G03X8422000Y-12573000I-40000J0D01*
G01*
X8422000Y-13335000D02*
G75*
G03X8422000Y-13335000I-40000J0D01*
G01*
X8549000Y-14478000D02*
G75*
G03X8549000Y-14478000I-40000J0D01*
G01*
X8549000Y-15240000D02*
G75*
G03X8549000Y-15240000I-40000J0D01*
G01*
X8676000Y-12573000D02*
G75*
G03X8676000Y-12573000I-40000J0D01*
G01*
X8676000Y-13335000D02*
G75*
G03X8676000Y-13335000I-40000J0D01*
G01*
X8803000Y-14478000D02*
G75*
G03X8803000Y-14478000I-40000J0D01*
G01*
X8803000Y-15240000D02*
G75*
G03X8803000Y-15240000I-40000J0D01*
G01*
X9057000Y-14478000D02*
G75*
G03X9057000Y-14478000I-40000J0D01*
G01*
X9057000Y-15240000D02*
G75*
G03X9057000Y-15240000I-40000J0D01*
G01*
X9438000Y-7620000D02*
G75*
G03X9438000Y-7620000I-40000J0D01*
G01*
X9438000Y-7874000D02*
G75*
G03X9438000Y-7874000I-40000J0D01*
G01*
X9438000Y-8128000D02*
G75*
G03X9438000Y-8128000I-40000J0D01*
G01*
X9438000Y-8382000D02*
G75*
G03X9438000Y-8382000I-40000J0D01*
G01*
X9438000Y-8636000D02*
G75*
G03X9438000Y-8636000I-40000J0D01*
G01*
X9438000Y-8890000D02*
G75*
G03X9438000Y-8890000I-40000J0D01*
G01*
X9438000Y-9144000D02*
G75*
G03X9438000Y-9144000I-40000J0D01*
G01*
X9438000Y-9398000D02*
G75*
G03X9438000Y-9398000I-40000J0D01*
G01*
X9438000Y-9652000D02*
G75*
G03X9438000Y-9652000I-40000J0D01*
G01*
X9438000Y-9906000D02*
G75*
G03X9438000Y-9906000I-40000J0D01*
G01*
X9438000Y-10160000D02*
G75*
G03X9438000Y-10160000I-40000J0D01*
G01*
X9438000Y-10414000D02*
G75*
G03X9438000Y-10414000I-40000J0D01*
G01*
X9438000Y-10668000D02*
G75*
G03X9438000Y-10668000I-40000J0D01*
G01*
X9438000Y-10922000D02*
G75*
G03X9438000Y-10922000I-40000J0D01*
G01*
X9819000Y-14478000D02*
G75*
G03X9819000Y-14478000I-40000J0D01*
G01*
X9819000Y-15240000D02*
G75*
G03X9819000Y-15240000I-40000J0D01*
G01*
X10073000Y-14478000D02*
G75*
G03X10073000Y-14478000I-40000J0D01*
G01*
X10073000Y-15240000D02*
G75*
G03X10073000Y-15240000I-40000J0D01*
G01*
X10327000Y-14478000D02*
G75*
G03X10327000Y-14478000I-40000J0D01*
G01*
X10327000Y-15240000D02*
G75*
G03X10327000Y-15240000I-40000J0D01*
G01*
X10581000Y-14478000D02*
G75*
G03X10581000Y-14478000I-40000J0D01*
G01*
X10581000Y-15240000D02*
G75*
G03X10581000Y-15240000I-40000J0D01*
G01*
X10835000Y-14478000D02*
G75*
G03X10835000Y-14478000I-40000J0D01*
G01*
X10835000Y-15240000D02*
G75*
G03X10835000Y-15240000I-40000J0D01*
G01*
X10962000Y-7620000D02*
G75*
G03X10962000Y-7620000I-40000J0D01*
G01*
X10962000Y-7874000D02*
G75*
G03X10962000Y-7874000I-40000J0D01*
G01*
X10962000Y-8128000D02*
G75*
G03X10962000Y-8128000I-40000J0D01*
G01*
X10962000Y-8382000D02*
G75*
G03X10962000Y-8382000I-40000J0D01*
G01*
X10962000Y-8636000D02*
G75*
G03X10962000Y-8636000I-40000J0D01*
G01*
X10962000Y-8890000D02*
G75*
G03X10962000Y-8890000I-40000J0D01*
G01*
X10962000Y-9144000D02*
G75*
G03X10962000Y-9144000I-40000J0D01*
G01*
X10962000Y-9398000D02*
G75*
G03X10962000Y-9398000I-40000J0D01*
G01*
X10962000Y-9652000D02*
G75*
G03X10962000Y-9652000I-40000J0D01*
G01*
X10962000Y-9906000D02*
G75*
G03X10962000Y-9906000I-40000J0D01*
G01*
X10962000Y-10160000D02*
G75*
G03X10962000Y-10160000I-40000J0D01*
G01*
X10962000Y-10414000D02*
G75*
G03X10962000Y-10414000I-40000J0D01*
G01*
X10962000Y-10668000D02*
G75*
G03X10962000Y-10668000I-40000J0D01*
G01*
X10962000Y-10922000D02*
G75*
G03X10962000Y-10922000I-40000J0D01*
G01*
X11089000Y-14478000D02*
G75*
G03X11089000Y-14478000I-40000J0D01*
G01*
X11089000Y-15240000D02*
G75*
G03X11089000Y-15240000I-40000J0D01*
G01*
X11343000Y-14478000D02*
G75*
G03X11343000Y-14478000I-40000J0D01*
G01*
X11343000Y-15240000D02*
G75*
G03X11343000Y-15240000I-40000J0D01*
G01*
X11597000Y-11430000D02*
G75*
G03X11597000Y-11430000I-40000J0D01*
G01*
X11597000Y-11684000D02*
G75*
G03X11597000Y-11684000I-40000J0D01*
G01*
X11597000Y-11938000D02*
G75*
G03X11597000Y-11938000I-40000J0D01*
G01*
X11597000Y-12192000D02*
G75*
G03X11597000Y-12192000I-40000J0D01*
G01*
X11597000Y-14478000D02*
G75*
G03X11597000Y-14478000I-40000J0D01*
G01*
X11597000Y-15240000D02*
G75*
G03X11597000Y-15240000I-40000J0D01*
G01*
X11851000Y-14478000D02*
G75*
G03X11851000Y-14478000I-40000J0D01*
G01*
X11851000Y-15240000D02*
G75*
G03X11851000Y-15240000I-40000J0D01*
G01*
X12105000Y-14478000D02*
G75*
G03X12105000Y-14478000I-40000J0D01*
G01*
X12105000Y-15240000D02*
G75*
G03X12105000Y-15240000I-40000J0D01*
G01*
X12359000Y-11430000D02*
G75*
G03X12359000Y-11430000I-40000J0D01*
G01*
X12359000Y-11684000D02*
G75*
G03X12359000Y-11684000I-40000J0D01*
G01*
X12359000Y-11938000D02*
G75*
G03X12359000Y-11938000I-40000J0D01*
G01*
X12359000Y-12192000D02*
G75*
G03X12359000Y-12192000I-40000J0D01*
G01*
X12613000Y-9906000D02*
G75*
G03X12613000Y-9906000I-40000J0D01*
G01*
X12613000Y-10160000D02*
G75*
G03X12613000Y-10160000I-40000J0D01*
G01*
X12613000Y-10414000D02*
G75*
G03X12613000Y-10414000I-40000J0D01*
G01*
X12613000Y-10668000D02*
G75*
G03X12613000Y-10668000I-40000J0D01*
G01*
X12867000Y-14478000D02*
G75*
G03X12867000Y-14478000I-40000J0D01*
G01*
X12867000Y-15240000D02*
G75*
G03X12867000Y-15240000I-40000J0D01*
G01*
X13121000Y-14478000D02*
G75*
G03X13121000Y-14478000I-40000J0D01*
G01*
X13121000Y-15240000D02*
G75*
G03X13121000Y-15240000I-40000J0D01*
G01*
X13375000Y-9906000D02*
G75*
G03X13375000Y-9906000I-40000J0D01*
G01*
X13375000Y-10160000D02*
G75*
G03X13375000Y-10160000I-40000J0D01*
G01*
X13375000Y-10414000D02*
G75*
G03X13375000Y-10414000I-40000J0D01*
G01*
X13375000Y-10668000D02*
G75*
G03X13375000Y-10668000I-40000J0D01*
G01*
X13375000Y-14478000D02*
G75*
G03X13375000Y-14478000I-40000J0D01*
G01*
X13375000Y-15240000D02*
G75*
G03X13375000Y-15240000I-40000J0D01*
G01*
X13629000Y-14478000D02*
G75*
G03X13629000Y-14478000I-40000J0D01*
G01*
X13629000Y-15240000D02*
G75*
G03X13629000Y-15240000I-40000J0D01*
G01*
X13883000Y-14478000D02*
G75*
G03X13883000Y-14478000I-40000J0D01*
G01*
X13883000Y-15240000D02*
G75*
G03X13883000Y-15240000I-40000J0D01*
G01*
X14137000Y-14478000D02*
G75*
G03X14137000Y-14478000I-40000J0D01*
G01*
X14137000Y-15240000D02*
G75*
G03X14137000Y-15240000I-40000J0D01*
G01*
X14391000Y-14478000D02*
G75*
G03X14391000Y-14478000I-40000J0D01*
G01*
X14391000Y-15240000D02*
G75*
G03X14391000Y-15240000I-40000J0D01*
G01*
X14645000Y-14478000D02*
G75*
G03X14645000Y-14478000I-40000J0D01*
G01*
X14645000Y-15240000D02*
G75*
G03X14645000Y-15240000I-40000J0D01*
G01*
X14899000Y-14478000D02*
G75*
G03X14899000Y-14478000I-40000J0D01*
G01*
X14899000Y-15240000D02*
G75*
G03X14899000Y-15240000I-40000J0D01*
G01*
X15026000Y-8636000D02*
G75*
G03X15026000Y-8636000I-40000J0D01*
G01*
X15026000Y-8890000D02*
G75*
G03X15026000Y-8890000I-40000J0D01*
G01*
X15026000Y-9144000D02*
G75*
G03X15026000Y-9144000I-40000J0D01*
G01*
X15026000Y-9398000D02*
G75*
G03X15026000Y-9398000I-40000J0D01*
G01*
X15026000Y-9652000D02*
G75*
G03X15026000Y-9652000I-40000J0D01*
G01*
X15026000Y-9906000D02*
G75*
G03X15026000Y-9906000I-40000J0D01*
G01*
X15026000Y-10160000D02*
G75*
G03X15026000Y-10160000I-40000J0D01*
G01*
X15026000Y-11049000D02*
G75*
G03X15026000Y-11049000I-40000J0D01*
G01*
X15026000Y-11303000D02*
G75*
G03X15026000Y-11303000I-40000J0D01*
G01*
X15026000Y-11557000D02*
G75*
G03X15026000Y-11557000I-40000J0D01*
G01*
X15026000Y-11811000D02*
G75*
G03X15026000Y-11811000I-40000J0D01*
G01*
X15026000Y-12065000D02*
G75*
G03X15026000Y-12065000I-40000J0D01*
G01*
X15026000Y-12319000D02*
G75*
G03X15026000Y-12319000I-40000J0D01*
G01*
X15026000Y-12573000D02*
G75*
G03X15026000Y-12573000I-40000J0D01*
G01*
X15153000Y-14478000D02*
G75*
G03X15153000Y-14478000I-40000J0D01*
G01*
X15153000Y-15240000D02*
G75*
G03X15153000Y-15240000I-40000J0D01*
G01*
X15788000Y-8636000D02*
G75*
G03X15788000Y-8636000I-40000J0D01*
G01*
X15788000Y-8890000D02*
G75*
G03X15788000Y-8890000I-40000J0D01*
G01*
X15788000Y-9144000D02*
G75*
G03X15788000Y-9144000I-40000J0D01*
G01*
X15788000Y-9398000D02*
G75*
G03X15788000Y-9398000I-40000J0D01*
G01*
X15788000Y-9652000D02*
G75*
G03X15788000Y-9652000I-40000J0D01*
G01*
X15788000Y-9906000D02*
G75*
G03X15788000Y-9906000I-40000J0D01*
G01*
X15788000Y-10160000D02*
G75*
G03X15788000Y-10160000I-40000J0D01*
G01*
X15788000Y-11049000D02*
G75*
G03X15788000Y-11049000I-40000J0D01*
G01*
X15788000Y-11303000D02*
G75*
G03X15788000Y-11303000I-40000J0D01*
G01*
X15788000Y-11557000D02*
G75*
G03X15788000Y-11557000I-40000J0D01*
G01*
X15788000Y-11811000D02*
G75*
G03X15788000Y-11811000I-40000J0D01*
G01*
X15788000Y-12065000D02*
G75*
G03X15788000Y-12065000I-40000J0D01*
G01*
X15788000Y-12319000D02*
G75*
G03X15788000Y-12319000I-40000J0D01*
G01*
X15788000Y-12573000D02*
G75*
G03X15788000Y-12573000I-40000J0D01*
G01*
X3683000Y-16088360D02*
X3683000Y-16169640D01*
X3642360Y-16129000D02*
X3723640Y-16129000D01*
X3683000Y-16469360D02*
X3683000Y-16550640D01*
X3642360Y-16510000D02*
X3723640Y-16510000D01*
X3937000Y-16088360D02*
X3937000Y-16169640D01*
X3896360Y-16129000D02*
X3977640Y-16129000D01*
X3937000Y-16469360D02*
X3937000Y-16550640D01*
X3896360Y-16510000D02*
X3977640Y-16510000D01*
X5842000Y-12532360D02*
X5842000Y-12613640D01*
X5801360Y-12573000D02*
X5882640Y-12573000D01*
X5842000Y-12786360D02*
X5842000Y-12867640D01*
X5801360Y-12827000D02*
X5882640Y-12827000D01*
X5842000Y-13040360D02*
X5842000Y-13121640D01*
X5801360Y-13081000D02*
X5882640Y-13081000D01*
X5842000Y-13294360D02*
X5842000Y-13375640D01*
X5801360Y-13335000D02*
X5882640Y-13335000D01*
X6223000Y-12532360D02*
X6223000Y-12613640D01*
X6182360Y-12573000D02*
X6263640Y-12573000D01*
X6223000Y-12786360D02*
X6223000Y-12867640D01*
X6182360Y-12827000D02*
X6263640Y-12827000D01*
X6223000Y-13040360D02*
X6223000Y-13121640D01*
X6182360Y-13081000D02*
X6263640Y-13081000D01*
X6223000Y-13294360D02*
X6223000Y-13375640D01*
X6182360Y-13335000D02*
X6263640Y-13335000D01*
X9017000Y-12532360D02*
X9017000Y-12613640D01*
X8976360Y-12573000D02*
X9057640Y-12573000D01*
X9017000Y-13040360D02*
X9017000Y-13121640D01*
X8976360Y-13081000D02*
X9057640Y-13081000D01*
X9271000Y-12532360D02*
X9271000Y-12613640D01*
X9230360Y-12573000D02*
X9311640Y-12573000D01*
X9271000Y-13040360D02*
X9271000Y-13121640D01*
X9230360Y-13081000D02*
X9311640Y-13081000D01*
X11303000Y-7579360D02*
X11303000Y-7660640D01*
X11262360Y-7620000D02*
X11343640Y-7620000D01*
X11303000Y-7833360D02*
X11303000Y-7914640D01*
X11262360Y-7874000D02*
X11343640Y-7874000D01*
X11430000Y-9611360D02*
X11430000Y-9692640D01*
X11389360Y-9652000D02*
X11470640Y-9652000D01*
X11684000Y-9611360D02*
X11684000Y-9692640D01*
X11643360Y-9652000D02*
X11724640Y-9652000D01*
X12065000Y-7833360D02*
X12065000Y-7914640D01*
X12024360Y-7874000D02*
X12105640Y-7874000D01*
X12065000Y-8214360D02*
X12065000Y-8295640D01*
X12024360Y-8255000D02*
X12105640Y-8255000D01*
X12065000Y-8595360D02*
X12065000Y-8676640D01*
X12024360Y-8636000D02*
X12105640Y-8636000D01*
X12065000Y-8976360D02*
X12065000Y-9057640D01*
X12024360Y-9017000D02*
X12105640Y-9017000D01*
X12065000Y-9357360D02*
X12065000Y-9438640D01*
X12024360Y-9398000D02*
X12105640Y-9398000D01*
X12319000Y-7833360D02*
X12319000Y-7914640D01*
X12278360Y-7874000D02*
X12359640Y-7874000D01*
X12319000Y-8214360D02*
X12319000Y-8295640D01*
X12278360Y-8255000D02*
X12359640Y-8255000D01*
X12319000Y-8595360D02*
X12319000Y-8676640D01*
X12278360Y-8636000D02*
X12359640Y-8636000D01*
X12319000Y-8976360D02*
X12319000Y-9057640D01*
X12278360Y-9017000D02*
X12359640Y-9017000D01*
X12319000Y-9357360D02*
X12319000Y-9438640D01*
X12278360Y-9398000D02*
X12359640Y-9398000D01*
X12700000Y-11389360D02*
X12700000Y-11470640D01*
X12659360Y-11430000D02*
X12740640Y-11430000D01*
X12700000Y-11643360D02*
X12700000Y-11724640D01*
X12659360Y-11684000D02*
X12740640Y-11684000D01*
X13081000Y-11389360D02*
X13081000Y-11470640D01*
X13040360Y-11430000D02*
X13121640Y-11430000D01*
X13335000Y-8468360D02*
X13335000Y-8549640D01*
X13294360Y-8509000D02*
X13375640Y-8509000D01*
X13335000Y-8849360D02*
X13335000Y-8930640D01*
X13294360Y-8890000D02*
X13375640Y-8890000D01*
X13335000Y-11389360D02*
X13335000Y-11470640D01*
X13294360Y-11430000D02*
X13375640Y-11430000D01*
X13589000Y-8468360D02*
X13589000Y-8549640D01*
X13548360Y-8509000D02*
X13629640Y-8509000D01*
X13589000Y-8849360D02*
X13589000Y-8930640D01*
X13548360Y-8890000D02*
X13629640Y-8890000D01*
X13843000Y-10119360D02*
X13843000Y-10200640D01*
X13802360Y-10160000D02*
X13883640Y-10160000D01*
X14097000Y-10119360D02*
X14097000Y-10200640D01*
X14056360Y-10160000D02*
X14137640Y-10160000D01*
X14097000Y-16342360D02*
X14097000Y-16423640D01*
X14056360Y-16383000D02*
X14137640Y-16383000D01*
X14224000Y-12024360D02*
X14224000Y-12105640D01*
X14183360Y-12065000D02*
X14264640Y-12065000D01*
X14351000Y-16342360D02*
X14351000Y-16423640D01*
X14310360Y-16383000D02*
X14391640Y-16383000D01*
X14478000Y-11008360D02*
X14478000Y-11089640D01*
X14437360Y-11049000D02*
X14518640Y-11049000D01*
X14478000Y-11262360D02*
X14478000Y-11343640D01*
X14437360Y-11303000D02*
X14518640Y-11303000D01*
X14478000Y-12024360D02*
X14478000Y-12105640D01*
X14437360Y-12065000D02*
X14518640Y-12065000D01*
X14605000Y-12913360D02*
X14605000Y-12994640D01*
X14564360Y-12954000D02*
X14645640Y-12954000D01*
X14605000Y-13167360D02*
X14605000Y-13248640D01*
X14564360Y-13208000D02*
X14645640Y-13208000D01*
X15113000Y-12913360D02*
X15113000Y-12994640D01*
X15072360Y-12954000D02*
X15153640Y-12954000D01*
X15240000Y-8087360D02*
X15240000Y-8168640D01*
X15199360Y-8128000D02*
X15280640Y-8128000D01*
X15367000Y-12913360D02*
X15367000Y-12994640D01*
X15326360Y-12954000D02*
X15407640Y-12954000D01*
X15494000Y-8087360D02*
X15494000Y-8168640D01*
X15453360Y-8128000D02*
X15534640Y-8128000D01*
X3591356Y-7274356D02*
X3591356Y-7203644D01*
X3520644Y-7203644D01*
X3520644Y-7274356D01*
X3591356Y-7274356D01*
X3591356Y-7528356D02*
X3591356Y-7457644D01*
X3520644Y-7457644D01*
X3520644Y-7528356D01*
X3591356Y-7528356D01*
X3591356Y-7782356D02*
X3591356Y-7711644D01*
X3520644Y-7711644D01*
X3520644Y-7782356D01*
X3591356Y-7782356D01*
X3591356Y-8036356D02*
X3591356Y-7965644D01*
X3520644Y-7965644D01*
X3520644Y-8036356D01*
X3591356Y-8036356D01*
X3591356Y-8290356D02*
X3591356Y-8219644D01*
X3520644Y-8219644D01*
X3520644Y-8290356D01*
X3591356Y-8290356D01*
X3591356Y-8544356D02*
X3591356Y-8473644D01*
X3520644Y-8473644D01*
X3520644Y-8544356D01*
X3591356Y-8544356D01*
X3591356Y-8798356D02*
X3591356Y-8727644D01*
X3520644Y-8727644D01*
X3520644Y-8798356D01*
X3591356Y-8798356D01*
X3591356Y-9052356D02*
X3591356Y-8981644D01*
X3520644Y-8981644D01*
X3520644Y-9052356D01*
X3591356Y-9052356D01*
X3591356Y-9306356D02*
X3591356Y-9235644D01*
X3520644Y-9235644D01*
X3520644Y-9306356D01*
X3591356Y-9306356D01*
X3591356Y-9560356D02*
X3591356Y-9489644D01*
X3520644Y-9489644D01*
X3520644Y-9560356D01*
X3591356Y-9560356D01*
X3591356Y-9814356D02*
X3591356Y-9743644D01*
X3520644Y-9743644D01*
X3520644Y-9814356D01*
X3591356Y-9814356D01*
X3591356Y-10068356D02*
X3591356Y-9997644D01*
X3520644Y-9997644D01*
X3520644Y-10068356D01*
X3591356Y-10068356D01*
X3591356Y-10322356D02*
X3591356Y-10251644D01*
X3520644Y-10251644D01*
X3520644Y-10322356D01*
X3591356Y-10322356D01*
X3591356Y-10576356D02*
X3591356Y-10505644D01*
X3520644Y-10505644D01*
X3520644Y-10576356D01*
X3591356Y-10576356D01*
X3591356Y-10830356D02*
X3591356Y-10759644D01*
X3520644Y-10759644D01*
X3520644Y-10830356D01*
X3591356Y-10830356D01*
X3591356Y-11084356D02*
X3591356Y-11013644D01*
X3520644Y-11013644D01*
X3520644Y-11084356D01*
X3591356Y-11084356D01*
X3591356Y-11338356D02*
X3591356Y-11267644D01*
X3520644Y-11267644D01*
X3520644Y-11338356D01*
X3591356Y-11338356D01*
X3591356Y-11592356D02*
X3591356Y-11521644D01*
X3520644Y-11521644D01*
X3520644Y-11592356D01*
X3591356Y-11592356D01*
X3591356Y-11846356D02*
X3591356Y-11775644D01*
X3520644Y-11775644D01*
X3520644Y-11846356D01*
X3591356Y-11846356D01*
X3591356Y-12100356D02*
X3591356Y-12029644D01*
X3520644Y-12029644D01*
X3520644Y-12100356D01*
X3591356Y-12100356D01*
X3591356Y-12862356D02*
X3591356Y-12791644D01*
X3520644Y-12791644D01*
X3520644Y-12862356D01*
X3591356Y-12862356D01*
X3591356Y-13497356D02*
X3591356Y-13426644D01*
X3520644Y-13426644D01*
X3520644Y-13497356D01*
X3591356Y-13497356D01*
X3845356Y-7274356D02*
X3845356Y-7203644D01*
X3774644Y-7203644D01*
X3774644Y-7274356D01*
X3845356Y-7274356D01*
X3845356Y-7528356D02*
X3845356Y-7457644D01*
X3774644Y-7457644D01*
X3774644Y-7528356D01*
X3845356Y-7528356D01*
X3845356Y-7782356D02*
X3845356Y-7711644D01*
X3774644Y-7711644D01*
X3774644Y-7782356D01*
X3845356Y-7782356D01*
X3845356Y-8036356D02*
X3845356Y-7965644D01*
X3774644Y-7965644D01*
X3774644Y-8036356D01*
X3845356Y-8036356D01*
X3845356Y-8290356D02*
X3845356Y-8219644D01*
X3774644Y-8219644D01*
X3774644Y-8290356D01*
X3845356Y-8290356D01*
X3845356Y-8544356D02*
X3845356Y-8473644D01*
X3774644Y-8473644D01*
X3774644Y-8544356D01*
X3845356Y-8544356D01*
X3845356Y-8798356D02*
X3845356Y-8727644D01*
X3774644Y-8727644D01*
X3774644Y-8798356D01*
X3845356Y-8798356D01*
X3845356Y-9052356D02*
X3845356Y-8981644D01*
X3774644Y-8981644D01*
X3774644Y-9052356D01*
X3845356Y-9052356D01*
X3845356Y-9306356D02*
X3845356Y-9235644D01*
X3774644Y-9235644D01*
X3774644Y-9306356D01*
X3845356Y-9306356D01*
X3845356Y-9560356D02*
X3845356Y-9489644D01*
X3774644Y-9489644D01*
X3774644Y-9560356D01*
X3845356Y-9560356D01*
X3845356Y-9814356D02*
X3845356Y-9743644D01*
X3774644Y-9743644D01*
X3774644Y-9814356D01*
X3845356Y-9814356D01*
X3845356Y-10068356D02*
X3845356Y-9997644D01*
X3774644Y-9997644D01*
X3774644Y-10068356D01*
X3845356Y-10068356D01*
X3845356Y-10322356D02*
X3845356Y-10251644D01*
X3774644Y-10251644D01*
X3774644Y-10322356D01*
X3845356Y-10322356D01*
X3845356Y-10576356D02*
X3845356Y-10505644D01*
X3774644Y-10505644D01*
X3774644Y-10576356D01*
X3845356Y-10576356D01*
X3845356Y-10830356D02*
X3845356Y-10759644D01*
X3774644Y-10759644D01*
X3774644Y-10830356D01*
X3845356Y-10830356D01*
X3845356Y-11084356D02*
X3845356Y-11013644D01*
X3774644Y-11013644D01*
X3774644Y-11084356D01*
X3845356Y-11084356D01*
X3845356Y-11338356D02*
X3845356Y-11267644D01*
X3774644Y-11267644D01*
X3774644Y-11338356D01*
X3845356Y-11338356D01*
X3845356Y-11592356D02*
X3845356Y-11521644D01*
X3774644Y-11521644D01*
X3774644Y-11592356D01*
X3845356Y-11592356D01*
X3845356Y-11846356D02*
X3845356Y-11775644D01*
X3774644Y-11775644D01*
X3774644Y-11846356D01*
X3845356Y-11846356D01*
X3845356Y-12100356D02*
X3845356Y-12029644D01*
X3774644Y-12029644D01*
X3774644Y-12100356D01*
X3845356Y-12100356D01*
X3972356Y-15783356D02*
X3972356Y-15712644D01*
X3901644Y-15712644D01*
X3901644Y-15783356D01*
X3972356Y-15783356D01*
X4226356Y-15783356D02*
X4226356Y-15712644D01*
X4155644Y-15712644D01*
X4155644Y-15783356D01*
X4226356Y-15783356D01*
X4480356Y-15783356D02*
X4480356Y-15712644D01*
X4409644Y-15712644D01*
X4409644Y-15783356D01*
X4480356Y-15783356D01*
X4480356Y-16291356D02*
X4480356Y-16220644D01*
X4409644Y-16220644D01*
X4409644Y-16291356D01*
X4480356Y-16291356D01*
X4480356Y-16545356D02*
X4480356Y-16474644D01*
X4409644Y-16474644D01*
X4409644Y-16545356D01*
X4480356Y-16545356D01*
X4734356Y-15783356D02*
X4734356Y-15712644D01*
X4663644Y-15712644D01*
X4663644Y-15783356D01*
X4734356Y-15783356D01*
X4734356Y-16291356D02*
X4734356Y-16220644D01*
X4663644Y-16220644D01*
X4663644Y-16291356D01*
X4734356Y-16291356D01*
X4734356Y-16545356D02*
X4734356Y-16474644D01*
X4663644Y-16474644D01*
X4663644Y-16545356D01*
X4734356Y-16545356D01*
X4988356Y-15783356D02*
X4988356Y-15712644D01*
X4917644Y-15712644D01*
X4917644Y-15783356D01*
X4988356Y-15783356D01*
X4988356Y-16291356D02*
X4988356Y-16220644D01*
X4917644Y-16220644D01*
X4917644Y-16291356D01*
X4988356Y-16291356D01*
X4988356Y-16545356D02*
X4988356Y-16474644D01*
X4917644Y-16474644D01*
X4917644Y-16545356D01*
X4988356Y-16545356D01*
X5242356Y-15783356D02*
X5242356Y-15712644D01*
X5171644Y-15712644D01*
X5171644Y-15783356D01*
X5242356Y-15783356D01*
X5242356Y-16291356D02*
X5242356Y-16220644D01*
X5171644Y-16220644D01*
X5171644Y-16291356D01*
X5242356Y-16291356D01*
X5242356Y-16545356D02*
X5242356Y-16474644D01*
X5171644Y-16474644D01*
X5171644Y-16545356D01*
X5242356Y-16545356D01*
X5496356Y-15783356D02*
X5496356Y-15712644D01*
X5425644Y-15712644D01*
X5425644Y-15783356D01*
X5496356Y-15783356D01*
X5496356Y-16291356D02*
X5496356Y-16220644D01*
X5425644Y-16220644D01*
X5425644Y-16291356D01*
X5496356Y-16291356D01*
X5496356Y-16545356D02*
X5496356Y-16474644D01*
X5425644Y-16474644D01*
X5425644Y-16545356D01*
X5496356Y-16545356D01*
X5750356Y-15783356D02*
X5750356Y-15712644D01*
X5679644Y-15712644D01*
X5679644Y-15783356D01*
X5750356Y-15783356D01*
X5750356Y-16291356D02*
X5750356Y-16220644D01*
X5679644Y-16220644D01*
X5679644Y-16291356D01*
X5750356Y-16291356D01*
X5750356Y-16545356D02*
X5750356Y-16474644D01*
X5679644Y-16474644D01*
X5679644Y-16545356D01*
X5750356Y-16545356D01*
X6004356Y-16291356D02*
X6004356Y-16220644D01*
X5933644Y-16220644D01*
X5933644Y-16291356D01*
X6004356Y-16291356D01*
X6004356Y-16545356D02*
X6004356Y-16474644D01*
X5933644Y-16474644D01*
X5933644Y-16545356D01*
X6004356Y-16545356D01*
X6258356Y-16291356D02*
X6258356Y-16220644D01*
X6187644Y-16220644D01*
X6187644Y-16291356D01*
X6258356Y-16291356D01*
X6258356Y-16545356D02*
X6258356Y-16474644D01*
X6187644Y-16474644D01*
X6187644Y-16545356D01*
X6258356Y-16545356D01*
X6512356Y-16291356D02*
X6512356Y-16220644D01*
X6441644Y-16220644D01*
X6441644Y-16291356D01*
X6512356Y-16291356D01*
X6512356Y-16545356D02*
X6512356Y-16474644D01*
X6441644Y-16474644D01*
X6441644Y-16545356D01*
X6512356Y-16545356D01*
X6766356Y-15783356D02*
X6766356Y-15712644D01*
X6695644Y-15712644D01*
X6695644Y-15783356D01*
X6766356Y-15783356D01*
X6766356Y-16291356D02*
X6766356Y-16220644D01*
X6695644Y-16220644D01*
X6695644Y-16291356D01*
X6766356Y-16291356D01*
X6766356Y-16545356D02*
X6766356Y-16474644D01*
X6695644Y-16474644D01*
X6695644Y-16545356D01*
X6766356Y-16545356D01*
X7020356Y-15783356D02*
X7020356Y-15712644D01*
X6949644Y-15712644D01*
X6949644Y-15783356D01*
X7020356Y-15783356D01*
X7020356Y-16291356D02*
X7020356Y-16220644D01*
X6949644Y-16220644D01*
X6949644Y-16291356D01*
X7020356Y-16291356D01*
X7020356Y-16545356D02*
X7020356Y-16474644D01*
X6949644Y-16474644D01*
X6949644Y-16545356D01*
X7020356Y-16545356D01*
X7274356Y-15783356D02*
X7274356Y-15712644D01*
X7203644Y-15712644D01*
X7203644Y-15783356D01*
X7274356Y-15783356D01*
X7274356Y-16291356D02*
X7274356Y-16220644D01*
X7203644Y-16220644D01*
X7203644Y-16291356D01*
X7274356Y-16291356D01*
X7274356Y-16545356D02*
X7274356Y-16474644D01*
X7203644Y-16474644D01*
X7203644Y-16545356D01*
X7274356Y-16545356D01*
X7528356Y-15783356D02*
X7528356Y-15712644D01*
X7457644Y-15712644D01*
X7457644Y-15783356D01*
X7528356Y-15783356D01*
X7528356Y-16291356D02*
X7528356Y-16220644D01*
X7457644Y-16220644D01*
X7457644Y-16291356D01*
X7528356Y-16291356D01*
X7528356Y-16545356D02*
X7528356Y-16474644D01*
X7457644Y-16474644D01*
X7457644Y-16545356D01*
X7528356Y-16545356D01*
X7782356Y-15783356D02*
X7782356Y-15712644D01*
X7711644Y-15712644D01*
X7711644Y-15783356D01*
X7782356Y-15783356D01*
X7782356Y-16291356D02*
X7782356Y-16220644D01*
X7711644Y-16220644D01*
X7711644Y-16291356D01*
X7782356Y-16291356D01*
X7782356Y-16545356D02*
X7782356Y-16474644D01*
X7711644Y-16474644D01*
X7711644Y-16545356D01*
X7782356Y-16545356D01*
X8036356Y-15783356D02*
X8036356Y-15712644D01*
X7965644Y-15712644D01*
X7965644Y-15783356D01*
X8036356Y-15783356D01*
X8036356Y-16291356D02*
X8036356Y-16220644D01*
X7965644Y-16220644D01*
X7965644Y-16291356D01*
X8036356Y-16291356D01*
X8036356Y-16545356D02*
X8036356Y-16474644D01*
X7965644Y-16474644D01*
X7965644Y-16545356D01*
X8036356Y-16545356D01*
X8290356Y-15783356D02*
X8290356Y-15712644D01*
X8219644Y-15712644D01*
X8219644Y-15783356D01*
X8290356Y-15783356D01*
X8290356Y-16291356D02*
X8290356Y-16220644D01*
X8219644Y-16220644D01*
X8219644Y-16291356D01*
X8290356Y-16291356D01*
X8290356Y-16545356D02*
X8290356Y-16474644D01*
X8219644Y-16474644D01*
X8219644Y-16545356D01*
X8290356Y-16545356D01*
X8544356Y-15783356D02*
X8544356Y-15712644D01*
X8473644Y-15712644D01*
X8473644Y-15783356D01*
X8544356Y-15783356D01*
X8544356Y-16291356D02*
X8544356Y-16220644D01*
X8473644Y-16220644D01*
X8473644Y-16291356D01*
X8544356Y-16291356D01*
X8544356Y-16545356D02*
X8544356Y-16474644D01*
X8473644Y-16474644D01*
X8473644Y-16545356D01*
X8544356Y-16545356D01*
X8798356Y-16291356D02*
X8798356Y-16220644D01*
X8727644Y-16220644D01*
X8727644Y-16291356D01*
X8798356Y-16291356D01*
X8798356Y-16545356D02*
X8798356Y-16474644D01*
X8727644Y-16474644D01*
X8727644Y-16545356D01*
X8798356Y-16545356D01*
X9052356Y-16291356D02*
X9052356Y-16220644D01*
X8981644Y-16220644D01*
X8981644Y-16291356D01*
X9052356Y-16291356D01*
X9052356Y-16545356D02*
X9052356Y-16474644D01*
X8981644Y-16474644D01*
X8981644Y-16545356D01*
X9052356Y-16545356D01*
X9306356Y-16291356D02*
X9306356Y-16220644D01*
X9235644Y-16220644D01*
X9235644Y-16291356D01*
X9306356Y-16291356D01*
X9306356Y-16545356D02*
X9306356Y-16474644D01*
X9235644Y-16474644D01*
X9235644Y-16545356D01*
X9306356Y-16545356D01*
X9560356Y-16291356D02*
X9560356Y-16220644D01*
X9489644Y-16220644D01*
X9489644Y-16291356D01*
X9560356Y-16291356D01*
X9560356Y-16545356D02*
X9560356Y-16474644D01*
X9489644Y-16474644D01*
X9489644Y-16545356D01*
X9560356Y-16545356D01*
X9814356Y-16291356D02*
X9814356Y-16220644D01*
X9743644Y-16220644D01*
X9743644Y-16291356D01*
X9814356Y-16291356D01*
X9814356Y-16545356D02*
X9814356Y-16474644D01*
X9743644Y-16474644D01*
X9743644Y-16545356D01*
X9814356Y-16545356D01*
X10068356Y-15783356D02*
X10068356Y-15712644D01*
X9997644Y-15712644D01*
X9997644Y-15783356D01*
X10068356Y-15783356D01*
X10068356Y-16291356D02*
X10068356Y-16220644D01*
X9997644Y-16220644D01*
X9997644Y-16291356D01*
X10068356Y-16291356D01*
X10068356Y-16545356D02*
X10068356Y-16474644D01*
X9997644Y-16474644D01*
X9997644Y-16545356D01*
X10068356Y-16545356D01*
X10322356Y-15783356D02*
X10322356Y-15712644D01*
X10251644Y-15712644D01*
X10251644Y-15783356D01*
X10322356Y-15783356D01*
X10576356Y-15783356D02*
X10576356Y-15712644D01*
X10505644Y-15712644D01*
X10505644Y-15783356D01*
X10576356Y-15783356D01*
X10830356Y-15783356D02*
X10830356Y-15712644D01*
X10759644Y-15712644D01*
X10759644Y-15783356D01*
X10830356Y-15783356D01*
X10957356Y-16418356D02*
X10957356Y-16347644D01*
X10886644Y-16347644D01*
X10886644Y-16418356D01*
X10957356Y-16418356D01*
X11084356Y-15783356D02*
X11084356Y-15712644D01*
X11013644Y-15712644D01*
X11013644Y-15783356D01*
X11084356Y-15783356D01*
X11211356Y-16418356D02*
X11211356Y-16347644D01*
X11140644Y-16347644D01*
X11140644Y-16418356D01*
X11211356Y-16418356D01*
X11338356Y-15783356D02*
X11338356Y-15712644D01*
X11267644Y-15712644D01*
X11267644Y-15783356D01*
X11338356Y-15783356D01*
X11465356Y-16418356D02*
X11465356Y-16347644D01*
X11394644Y-16347644D01*
X11394644Y-16418356D01*
X11465356Y-16418356D01*
X11592356Y-15783356D02*
X11592356Y-15712644D01*
X11521644Y-15712644D01*
X11521644Y-15783356D01*
X11592356Y-15783356D01*
X11719356Y-16418356D02*
X11719356Y-16347644D01*
X11648644Y-16347644D01*
X11648644Y-16418356D01*
X11719356Y-16418356D01*
X11846356Y-13370356D02*
X11846356Y-13299644D01*
X11775644Y-13299644D01*
X11775644Y-13370356D01*
X11846356Y-13370356D01*
X11846356Y-15783356D02*
X11846356Y-15712644D01*
X11775644Y-15712644D01*
X11775644Y-15783356D01*
X11846356Y-15783356D01*
X11973356Y-16418356D02*
X11973356Y-16347644D01*
X11902644Y-16347644D01*
X11902644Y-16418356D01*
X11973356Y-16418356D01*
X12100356Y-13370356D02*
X12100356Y-13299644D01*
X12029644Y-13299644D01*
X12029644Y-13370356D01*
X12100356Y-13370356D01*
X12227356Y-16418356D02*
X12227356Y-16347644D01*
X12156644Y-16347644D01*
X12156644Y-16418356D01*
X12227356Y-16418356D01*
X12481356Y-16418356D02*
X12481356Y-16347644D01*
X12410644Y-16347644D01*
X12410644Y-16418356D01*
X12481356Y-16418356D01*
X12735356Y-16418356D02*
X12735356Y-16347644D01*
X12664644Y-16347644D01*
X12664644Y-16418356D01*
X12735356Y-16418356D01*
X12862356Y-9433356D02*
X12862356Y-9362644D01*
X12791644Y-9362644D01*
X12791644Y-9433356D01*
X12862356Y-9433356D01*
X12862356Y-11084356D02*
X12862356Y-11013644D01*
X12791644Y-11013644D01*
X12791644Y-11084356D01*
X12862356Y-11084356D01*
X12862356Y-15783356D02*
X12862356Y-15712644D01*
X12791644Y-15712644D01*
X12791644Y-15783356D01*
X12862356Y-15783356D01*
X12989356Y-12227356D02*
X12989356Y-12156644D01*
X12918644Y-12156644D01*
X12918644Y-12227356D01*
X12989356Y-12227356D01*
X12989356Y-16418356D02*
X12989356Y-16347644D01*
X12918644Y-16347644D01*
X12918644Y-16418356D01*
X12989356Y-16418356D01*
X13116356Y-9433356D02*
X13116356Y-9362644D01*
X13045644Y-9362644D01*
X13045644Y-9433356D01*
X13116356Y-9433356D01*
X13116356Y-11084356D02*
X13116356Y-11013644D01*
X13045644Y-11013644D01*
X13045644Y-11084356D01*
X13116356Y-11084356D01*
X13116356Y-15783356D02*
X13116356Y-15712644D01*
X13045644Y-15712644D01*
X13045644Y-15783356D01*
X13116356Y-15783356D01*
X13243356Y-12227356D02*
X13243356Y-12156644D01*
X13172644Y-12156644D01*
X13172644Y-12227356D01*
X13243356Y-12227356D01*
X13243356Y-16418356D02*
X13243356Y-16347644D01*
X13172644Y-16347644D01*
X13172644Y-16418356D01*
X13243356Y-16418356D01*
X13370356Y-15783356D02*
X13370356Y-15712644D01*
X13299644Y-15712644D01*
X13299644Y-15783356D01*
X13370356Y-15783356D01*
X13497356Y-16418356D02*
X13497356Y-16347644D01*
X13426644Y-16347644D01*
X13426644Y-16418356D01*
X13497356Y-16418356D01*
X13624356Y-15783356D02*
X13624356Y-15712644D01*
X13553644Y-15712644D01*
X13553644Y-15783356D01*
X13624356Y-15783356D01*
X13878356Y-15783356D02*
X13878356Y-15712644D01*
X13807644Y-15712644D01*
X13807644Y-15783356D01*
X13878356Y-15783356D01*
X14132356Y-8798356D02*
X14132356Y-8727644D01*
X14061644Y-8727644D01*
X14061644Y-8798356D01*
X14132356Y-8798356D01*
X14132356Y-9052356D02*
X14132356Y-8981644D01*
X14061644Y-8981644D01*
X14061644Y-9052356D01*
X14132356Y-9052356D01*
X14132356Y-9306356D02*
X14132356Y-9235644D01*
X14061644Y-9235644D01*
X14061644Y-9306356D01*
X14132356Y-9306356D01*
X14132356Y-15783356D02*
X14132356Y-15712644D01*
X14061644Y-15712644D01*
X14061644Y-15783356D01*
X14132356Y-15783356D01*
X14386356Y-15783356D02*
X14386356Y-15712644D01*
X14315644Y-15712644D01*
X14315644Y-15783356D01*
X14386356Y-15783356D01*
X14640356Y-15783356D02*
X14640356Y-15712644D01*
X14569644Y-15712644D01*
X14569644Y-15783356D01*
X14640356Y-15783356D01*
X15275356Y-6766356D02*
X15275356Y-6695644D01*
X15204644Y-6695644D01*
X15204644Y-6766356D01*
X15275356Y-6766356D01*
X15275356Y-7528356D02*
X15275356Y-7457644D01*
X15204644Y-7457644D01*
X15204644Y-7528356D01*
X15275356Y-7528356D01*
X15529356Y-6766356D02*
X15529356Y-6695644D01*
X15458644Y-6695644D01*
X15458644Y-6766356D01*
X15529356Y-6766356D01*
X15529356Y-7528356D02*
X15529356Y-7457644D01*
X15458644Y-7457644D01*
X15458644Y-7528356D01*
X15529356Y-7528356D01*
D13*
X3441428Y-17615714D02*
X3441428Y-17315714D01*
X3512857Y-17315714D01*
X3555714Y-17330000D01*
X3584286Y-17358572D01*
X3598571Y-17387143D01*
X3612857Y-17444286D01*
X3612857Y-17487143D01*
X3598571Y-17544286D01*
X3584286Y-17572857D01*
X3555714Y-17601429D01*
X3512857Y-17615714D01*
X3441428Y-17615714D01*
X3741428Y-17615714D02*
X3741428Y-17415714D01*
X3741428Y-17472857D02*
X3755714Y-17444286D01*
X3770000Y-17430000D01*
X3798571Y-17415714D01*
X3827143Y-17415714D01*
X3927143Y-17615714D02*
X3927143Y-17415714D01*
X3927143Y-17315714D02*
X3912857Y-17330000D01*
X3927143Y-17344286D01*
X3941428Y-17330000D01*
X3927143Y-17315714D01*
X3927143Y-17344286D01*
X4112857Y-17615714D02*
X4084286Y-17601429D01*
X4070000Y-17572857D01*
X4070000Y-17315714D01*
X4270000Y-17615714D02*
X4241429Y-17601429D01*
X4227143Y-17572857D01*
X4227143Y-17315714D01*
X4612857Y-17615714D02*
X4612857Y-17315714D01*
X4712857Y-17530000D01*
X4812857Y-17315714D01*
X4812857Y-17615714D01*
X5084286Y-17615714D02*
X5084286Y-17458572D01*
X5070000Y-17430000D01*
X5041429Y-17415714D01*
X4984286Y-17415714D01*
X4955714Y-17430000D01*
X5084286Y-17601429D02*
X5055714Y-17615714D01*
X4984286Y-17615714D01*
X4955714Y-17601429D01*
X4941429Y-17572857D01*
X4941429Y-17544286D01*
X4955714Y-17515714D01*
X4984286Y-17501429D01*
X5055714Y-17501429D01*
X5084286Y-17487143D01*
X5227143Y-17415714D02*
X5227143Y-17715714D01*
X5227143Y-17430000D02*
X5255714Y-17415714D01*
X5312857Y-17415714D01*
X5341429Y-17430000D01*
X5355714Y-17444286D01*
X5370000Y-17472857D01*
X5370000Y-17558572D01*
X5355714Y-17587143D01*
X5341429Y-17601429D01*
X5312857Y-17615714D01*
X5255714Y-17615714D01*
X5227143Y-17601429D01*
X5498571Y-17587143D02*
X5512857Y-17601429D01*
X5498571Y-17615714D01*
X5484286Y-17601429D01*
X5498571Y-17587143D01*
X5498571Y-17615714D01*
X5498571Y-17430000D02*
X5512857Y-17444286D01*
X5498571Y-17458572D01*
X5484286Y-17444286D01*
X5498571Y-17430000D01*
X5498571Y-17458572D01*
X3131900Y-18090950D02*
X3170000Y-18129050D01*
X3170000Y-18090950D02*
X3131900Y-18129050D01*
X3498571Y-17945714D02*
X3527143Y-17945714D01*
X3555714Y-17960000D01*
X3570000Y-17974286D01*
X3584286Y-18002857D01*
X3598571Y-18060000D01*
X3598571Y-18131429D01*
X3584286Y-18188572D01*
X3570000Y-18217143D01*
X3555714Y-18231429D01*
X3527143Y-18245714D01*
X3498571Y-18245714D01*
X3470000Y-18231429D01*
X3455714Y-18217143D01*
X3441428Y-18188572D01*
X3427143Y-18131429D01*
X3427143Y-18060000D01*
X3441428Y-18002857D01*
X3455714Y-17974286D01*
X3470000Y-17960000D01*
X3498571Y-17945714D01*
X3727143Y-18217143D02*
X3741428Y-18231429D01*
X3727143Y-18245714D01*
X3712857Y-18231429D01*
X3727143Y-18217143D01*
X3727143Y-18245714D01*
X3841428Y-17945714D02*
X4027143Y-17945714D01*
X3927143Y-18060000D01*
X3970000Y-18060000D01*
X3998571Y-18074286D01*
X4012857Y-18088572D01*
X4027143Y-18117143D01*
X4027143Y-18188572D01*
X4012857Y-18217143D01*
X3998571Y-18231429D01*
X3970000Y-18245714D01*
X3884286Y-18245714D01*
X3855714Y-18231429D01*
X3841428Y-18217143D01*
X4198571Y-18074286D02*
X4170000Y-18060000D01*
X4155714Y-18045714D01*
X4141428Y-18017143D01*
X4141428Y-18002857D01*
X4155714Y-17974286D01*
X4170000Y-17960000D01*
X4198571Y-17945714D01*
X4255714Y-17945714D01*
X4284286Y-17960000D01*
X4298571Y-17974286D01*
X4312857Y-18002857D01*
X4312857Y-18017143D01*
X4298571Y-18045714D01*
X4284286Y-18060000D01*
X4255714Y-18074286D01*
X4198571Y-18074286D01*
X4170000Y-18088572D01*
X4155714Y-18102857D01*
X4141428Y-18131429D01*
X4141428Y-18188572D01*
X4155714Y-18217143D01*
X4170000Y-18231429D01*
X4198571Y-18245714D01*
X4255714Y-18245714D01*
X4284286Y-18231429D01*
X4298571Y-18217143D01*
X4312857Y-18188572D01*
X4312857Y-18131429D01*
X4298571Y-18102857D01*
X4284286Y-18088572D01*
X4255714Y-18074286D01*
X4441429Y-18245714D02*
X4441429Y-18045714D01*
X4441429Y-18074286D02*
X4455714Y-18060000D01*
X4484286Y-18045714D01*
X4527143Y-18045714D01*
X4555714Y-18060000D01*
X4570000Y-18088572D01*
X4570000Y-18245714D01*
X4570000Y-18088572D02*
X4584286Y-18060000D01*
X4612857Y-18045714D01*
X4655714Y-18045714D01*
X4684286Y-18060000D01*
X4698571Y-18088572D01*
X4698571Y-18245714D01*
X4841429Y-18245714D02*
X4841429Y-18045714D01*
X4841429Y-18074286D02*
X4855714Y-18060000D01*
X4884286Y-18045714D01*
X4927143Y-18045714D01*
X4955714Y-18060000D01*
X4970000Y-18088572D01*
X4970000Y-18245714D01*
X4970000Y-18088572D02*
X4984286Y-18060000D01*
X5012857Y-18045714D01*
X5055714Y-18045714D01*
X5084286Y-18060000D01*
X5098571Y-18088572D01*
X5098571Y-18245714D01*
X5684286Y-17931429D02*
X5427143Y-18317143D01*
X6070000Y-17945714D02*
X6098571Y-17945714D01*
X6127143Y-17960000D01*
X6141428Y-17974286D01*
X6155714Y-18002857D01*
X6170000Y-18060000D01*
X6170000Y-18131429D01*
X6155714Y-18188572D01*
X6141428Y-18217143D01*
X6127143Y-18231429D01*
X6098571Y-18245714D01*
X6070000Y-18245714D01*
X6041428Y-18231429D01*
X6027143Y-18217143D01*
X6012857Y-18188572D01*
X5998571Y-18131429D01*
X5998571Y-18060000D01*
X6012857Y-18002857D01*
X6027143Y-17974286D01*
X6041428Y-17960000D01*
X6070000Y-17945714D01*
X6298571Y-18217143D02*
X6312857Y-18231429D01*
X6298571Y-18245714D01*
X6284286Y-18231429D01*
X6298571Y-18217143D01*
X6298571Y-18245714D01*
X6498571Y-17945714D02*
X6527143Y-17945714D01*
X6555714Y-17960000D01*
X6570000Y-17974286D01*
X6584285Y-18002857D01*
X6598571Y-18060000D01*
X6598571Y-18131429D01*
X6584285Y-18188572D01*
X6570000Y-18217143D01*
X6555714Y-18231429D01*
X6527143Y-18245714D01*
X6498571Y-18245714D01*
X6470000Y-18231429D01*
X6455714Y-18217143D01*
X6441428Y-18188572D01*
X6427143Y-18131429D01*
X6427143Y-18060000D01*
X6441428Y-18002857D01*
X6455714Y-17974286D01*
X6470000Y-17960000D01*
X6498571Y-17945714D01*
X6884285Y-18245714D02*
X6712857Y-18245714D01*
X6798571Y-18245714D02*
X6798571Y-17945714D01*
X6770000Y-17988572D01*
X6741428Y-18017143D01*
X6712857Y-18031429D01*
X7155714Y-17945714D02*
X7012857Y-17945714D01*
X6998571Y-18088572D01*
X7012857Y-18074286D01*
X7041428Y-18060000D01*
X7112857Y-18060000D01*
X7141428Y-18074286D01*
X7155714Y-18088572D01*
X7170000Y-18117143D01*
X7170000Y-18188572D01*
X7155714Y-18217143D01*
X7141428Y-18231429D01*
X7112857Y-18245714D01*
X7041428Y-18245714D01*
X7012857Y-18231429D01*
X6998571Y-18217143D01*
X7284286Y-17945714D02*
X7284286Y-18002857D01*
X7398571Y-17945714D02*
X7398571Y-18002857D01*
X7841428Y-18360000D02*
X7827143Y-18345714D01*
X7798571Y-18302857D01*
X7784285Y-18274286D01*
X7770000Y-18231429D01*
X7755714Y-18160000D01*
X7755714Y-18102857D01*
X7770000Y-18031429D01*
X7784285Y-17988572D01*
X7798571Y-17960000D01*
X7827143Y-17917143D01*
X7841428Y-17902857D01*
X7927143Y-17945714D02*
X8112857Y-17945714D01*
X8012857Y-18060000D01*
X8055714Y-18060000D01*
X8084285Y-18074286D01*
X8098571Y-18088572D01*
X8112857Y-18117143D01*
X8112857Y-18188572D01*
X8098571Y-18217143D01*
X8084285Y-18231429D01*
X8055714Y-18245714D01*
X7970000Y-18245714D01*
X7941428Y-18231429D01*
X7927143Y-18217143D01*
X8398571Y-18245714D02*
X8227143Y-18245714D01*
X8312857Y-18245714D02*
X8312857Y-17945714D01*
X8284285Y-17988572D01*
X8255714Y-18017143D01*
X8227143Y-18031429D01*
X8755714Y-18245714D02*
X8755714Y-17945714D01*
X8884286Y-18245714D02*
X8884286Y-18088572D01*
X8870000Y-18060000D01*
X8841428Y-18045714D01*
X8798571Y-18045714D01*
X8770000Y-18060000D01*
X8755714Y-18074286D01*
X9070000Y-18245714D02*
X9041428Y-18231429D01*
X9027143Y-18217143D01*
X9012857Y-18188572D01*
X9012857Y-18102857D01*
X9027143Y-18074286D01*
X9041428Y-18060000D01*
X9070000Y-18045714D01*
X9112857Y-18045714D01*
X9141428Y-18060000D01*
X9155714Y-18074286D01*
X9170000Y-18102857D01*
X9170000Y-18188572D01*
X9155714Y-18217143D01*
X9141428Y-18231429D01*
X9112857Y-18245714D01*
X9070000Y-18245714D01*
X9341428Y-18245714D02*
X9312857Y-18231429D01*
X9298571Y-18202857D01*
X9298571Y-17945714D01*
X9570000Y-18231429D02*
X9541429Y-18245714D01*
X9484286Y-18245714D01*
X9455714Y-18231429D01*
X9441429Y-18202857D01*
X9441429Y-18088572D01*
X9455714Y-18060000D01*
X9484286Y-18045714D01*
X9541429Y-18045714D01*
X9570000Y-18060000D01*
X9584286Y-18088572D01*
X9584286Y-18117143D01*
X9441429Y-18145714D01*
X9698571Y-18231429D02*
X9727143Y-18245714D01*
X9784286Y-18245714D01*
X9812857Y-18231429D01*
X9827143Y-18202857D01*
X9827143Y-18188572D01*
X9812857Y-18160000D01*
X9784286Y-18145714D01*
X9741429Y-18145714D01*
X9712857Y-18131429D01*
X9698571Y-18102857D01*
X9698571Y-18088572D01*
X9712857Y-18060000D01*
X9741429Y-18045714D01*
X9784286Y-18045714D01*
X9812857Y-18060000D01*
X9927143Y-18360000D02*
X9941429Y-18345714D01*
X9970000Y-18302857D01*
X9984286Y-18274286D01*
X9998571Y-18231429D01*
X10012857Y-18160000D01*
X10012857Y-18102857D01*
X9998571Y-18031429D01*
X9984286Y-17988572D01*
X9970000Y-17960000D01*
X9941429Y-17917143D01*
X9927143Y-17902857D01*
X3170000Y-18506000D02*
G75*
G03X3170000Y-18506000I-40000J0D01*
G01*
X3498571Y-18341714D02*
X3527143Y-18341714D01*
X3555714Y-18356000D01*
X3570000Y-18370286D01*
X3584286Y-18398857D01*
X3598571Y-18456000D01*
X3598571Y-18527429D01*
X3584286Y-18584572D01*
X3570000Y-18613143D01*
X3555714Y-18627429D01*
X3527143Y-18641714D01*
X3498571Y-18641714D01*
X3470000Y-18627429D01*
X3455714Y-18613143D01*
X3441428Y-18584572D01*
X3427143Y-18527429D01*
X3427143Y-18456000D01*
X3441428Y-18398857D01*
X3455714Y-18370286D01*
X3470000Y-18356000D01*
X3498571Y-18341714D01*
X3727143Y-18613143D02*
X3741428Y-18627429D01*
X3727143Y-18641714D01*
X3712857Y-18627429D01*
X3727143Y-18613143D01*
X3727143Y-18641714D01*
X3912857Y-18470286D02*
X3884286Y-18456000D01*
X3870000Y-18441714D01*
X3855714Y-18413143D01*
X3855714Y-18398857D01*
X3870000Y-18370286D01*
X3884286Y-18356000D01*
X3912857Y-18341714D01*
X3970000Y-18341714D01*
X3998571Y-18356000D01*
X4012857Y-18370286D01*
X4027143Y-18398857D01*
X4027143Y-18413143D01*
X4012857Y-18441714D01*
X3998571Y-18456000D01*
X3970000Y-18470286D01*
X3912857Y-18470286D01*
X3884286Y-18484572D01*
X3870000Y-18498857D01*
X3855714Y-18527429D01*
X3855714Y-18584572D01*
X3870000Y-18613143D01*
X3884286Y-18627429D01*
X3912857Y-18641714D01*
X3970000Y-18641714D01*
X3998571Y-18627429D01*
X4012857Y-18613143D01*
X4027143Y-18584572D01*
X4027143Y-18527429D01*
X4012857Y-18498857D01*
X3998571Y-18484572D01*
X3970000Y-18470286D01*
X4212857Y-18341714D02*
X4241429Y-18341714D01*
X4270000Y-18356000D01*
X4284286Y-18370286D01*
X4298571Y-18398857D01*
X4312857Y-18456000D01*
X4312857Y-18527429D01*
X4298571Y-18584572D01*
X4284286Y-18613143D01*
X4270000Y-18627429D01*
X4241429Y-18641714D01*
X4212857Y-18641714D01*
X4184286Y-18627429D01*
X4170000Y-18613143D01*
X4155714Y-18584572D01*
X4141428Y-18527429D01*
X4141428Y-18456000D01*
X4155714Y-18398857D01*
X4170000Y-18370286D01*
X4184286Y-18356000D01*
X4212857Y-18341714D01*
X4441429Y-18641714D02*
X4441429Y-18441714D01*
X4441429Y-18470286D02*
X4455714Y-18456000D01*
X4484286Y-18441714D01*
X4527143Y-18441714D01*
X4555714Y-18456000D01*
X4570000Y-18484572D01*
X4570000Y-18641714D01*
X4570000Y-18484572D02*
X4584286Y-18456000D01*
X4612857Y-18441714D01*
X4655714Y-18441714D01*
X4684286Y-18456000D01*
X4698571Y-18484572D01*
X4698571Y-18641714D01*
X4841429Y-18641714D02*
X4841429Y-18441714D01*
X4841429Y-18470286D02*
X4855714Y-18456000D01*
X4884286Y-18441714D01*
X4927143Y-18441714D01*
X4955714Y-18456000D01*
X4970000Y-18484572D01*
X4970000Y-18641714D01*
X4970000Y-18484572D02*
X4984286Y-18456000D01*
X5012857Y-18441714D01*
X5055714Y-18441714D01*
X5084286Y-18456000D01*
X5098571Y-18484572D01*
X5098571Y-18641714D01*
X5684286Y-18327429D02*
X5427143Y-18713143D01*
X6070000Y-18341714D02*
X6098571Y-18341714D01*
X6127143Y-18356000D01*
X6141428Y-18370286D01*
X6155714Y-18398857D01*
X6170000Y-18456000D01*
X6170000Y-18527429D01*
X6155714Y-18584572D01*
X6141428Y-18613143D01*
X6127143Y-18627429D01*
X6098571Y-18641714D01*
X6070000Y-18641714D01*
X6041428Y-18627429D01*
X6027143Y-18613143D01*
X6012857Y-18584572D01*
X5998571Y-18527429D01*
X5998571Y-18456000D01*
X6012857Y-18398857D01*
X6027143Y-18370286D01*
X6041428Y-18356000D01*
X6070000Y-18341714D01*
X6298571Y-18613143D02*
X6312857Y-18627429D01*
X6298571Y-18641714D01*
X6284286Y-18627429D01*
X6298571Y-18613143D01*
X6298571Y-18641714D01*
X6498571Y-18341714D02*
X6527143Y-18341714D01*
X6555714Y-18356000D01*
X6570000Y-18370286D01*
X6584285Y-18398857D01*
X6598571Y-18456000D01*
X6598571Y-18527429D01*
X6584285Y-18584572D01*
X6570000Y-18613143D01*
X6555714Y-18627429D01*
X6527143Y-18641714D01*
X6498571Y-18641714D01*
X6470000Y-18627429D01*
X6455714Y-18613143D01*
X6441428Y-18584572D01*
X6427143Y-18527429D01*
X6427143Y-18456000D01*
X6441428Y-18398857D01*
X6455714Y-18370286D01*
X6470000Y-18356000D01*
X6498571Y-18341714D01*
X6698571Y-18341714D02*
X6884285Y-18341714D01*
X6784285Y-18456000D01*
X6827143Y-18456000D01*
X6855714Y-18470286D01*
X6870000Y-18484572D01*
X6884285Y-18513143D01*
X6884285Y-18584572D01*
X6870000Y-18613143D01*
X6855714Y-18627429D01*
X6827143Y-18641714D01*
X6741428Y-18641714D01*
X6712857Y-18627429D01*
X6698571Y-18613143D01*
X7170000Y-18641714D02*
X6998571Y-18641714D01*
X7084285Y-18641714D02*
X7084285Y-18341714D01*
X7055714Y-18384572D01*
X7027143Y-18413143D01*
X6998571Y-18427429D01*
X7284286Y-18341714D02*
X7284286Y-18398857D01*
X7398571Y-18341714D02*
X7398571Y-18398857D01*
X7841428Y-18756000D02*
X7827143Y-18741714D01*
X7798571Y-18698857D01*
X7784285Y-18670286D01*
X7770000Y-18627429D01*
X7755714Y-18556000D01*
X7755714Y-18498857D01*
X7770000Y-18427429D01*
X7784285Y-18384572D01*
X7798571Y-18356000D01*
X7827143Y-18313143D01*
X7841428Y-18298857D01*
X7941428Y-18370286D02*
X7955714Y-18356000D01*
X7984285Y-18341714D01*
X8055714Y-18341714D01*
X8084285Y-18356000D01*
X8098571Y-18370286D01*
X8112857Y-18398857D01*
X8112857Y-18427429D01*
X8098571Y-18470286D01*
X7927143Y-18641714D01*
X8112857Y-18641714D01*
X8298571Y-18341714D02*
X8327143Y-18341714D01*
X8355714Y-18356000D01*
X8370000Y-18370286D01*
X8384285Y-18398857D01*
X8398571Y-18456000D01*
X8398571Y-18527429D01*
X8384285Y-18584572D01*
X8370000Y-18613143D01*
X8355714Y-18627429D01*
X8327143Y-18641714D01*
X8298571Y-18641714D01*
X8270000Y-18627429D01*
X8255714Y-18613143D01*
X8241428Y-18584572D01*
X8227143Y-18527429D01*
X8227143Y-18456000D01*
X8241428Y-18398857D01*
X8255714Y-18370286D01*
X8270000Y-18356000D01*
X8298571Y-18341714D01*
X8655714Y-18341714D02*
X8598571Y-18341714D01*
X8570000Y-18356000D01*
X8555714Y-18370286D01*
X8527143Y-18413143D01*
X8512857Y-18470286D01*
X8512857Y-18584572D01*
X8527143Y-18613143D01*
X8541428Y-18627429D01*
X8570000Y-18641714D01*
X8627143Y-18641714D01*
X8655714Y-18627429D01*
X8670000Y-18613143D01*
X8684286Y-18584572D01*
X8684286Y-18513143D01*
X8670000Y-18484572D01*
X8655714Y-18470286D01*
X8627143Y-18456000D01*
X8570000Y-18456000D01*
X8541428Y-18470286D01*
X8527143Y-18484572D01*
X8512857Y-18513143D01*
X9041428Y-18641714D02*
X9041428Y-18341714D01*
X9170000Y-18641714D02*
X9170000Y-18484572D01*
X9155714Y-18456000D01*
X9127143Y-18441714D01*
X9084286Y-18441714D01*
X9055714Y-18456000D01*
X9041428Y-18470286D01*
X9355714Y-18641714D02*
X9327143Y-18627429D01*
X9312857Y-18613143D01*
X9298571Y-18584572D01*
X9298571Y-18498857D01*
X9312857Y-18470286D01*
X9327143Y-18456000D01*
X9355714Y-18441714D01*
X9398571Y-18441714D01*
X9427143Y-18456000D01*
X9441428Y-18470286D01*
X9455714Y-18498857D01*
X9455714Y-18584572D01*
X9441428Y-18613143D01*
X9427143Y-18627429D01*
X9398571Y-18641714D01*
X9355714Y-18641714D01*
X9627143Y-18641714D02*
X9598571Y-18627429D01*
X9584286Y-18598857D01*
X9584286Y-18341714D01*
X9855714Y-18627429D02*
X9827143Y-18641714D01*
X9770000Y-18641714D01*
X9741429Y-18627429D01*
X9727143Y-18598857D01*
X9727143Y-18484572D01*
X9741429Y-18456000D01*
X9770000Y-18441714D01*
X9827143Y-18441714D01*
X9855714Y-18456000D01*
X9870000Y-18484572D01*
X9870000Y-18513143D01*
X9727143Y-18541714D01*
X9984286Y-18627429D02*
X10012857Y-18641714D01*
X10070000Y-18641714D01*
X10098571Y-18627429D01*
X10112857Y-18598857D01*
X10112857Y-18584572D01*
X10098571Y-18556000D01*
X10070000Y-18541714D01*
X10027143Y-18541714D01*
X9998571Y-18527429D01*
X9984286Y-18498857D01*
X9984286Y-18484572D01*
X9998571Y-18456000D01*
X10027143Y-18441714D01*
X10070000Y-18441714D01*
X10098571Y-18456000D01*
X10212857Y-18756000D02*
X10227143Y-18741714D01*
X10255714Y-18698857D01*
X10270000Y-18670286D01*
X10284286Y-18627429D01*
X10298571Y-18556000D01*
X10298571Y-18498857D01*
X10284286Y-18427429D01*
X10270000Y-18384572D01*
X10255714Y-18356000D01*
X10227143Y-18313143D01*
X10212857Y-18298857D01*
X3129360Y-18861360D02*
X3129360Y-18942640D01*
X3088720Y-18902000D02*
X3170000Y-18902000D01*
X3498571Y-18737714D02*
X3527143Y-18737714D01*
X3555714Y-18752000D01*
X3570000Y-18766286D01*
X3584286Y-18794857D01*
X3598571Y-18852000D01*
X3598571Y-18923429D01*
X3584286Y-18980572D01*
X3570000Y-19009143D01*
X3555714Y-19023429D01*
X3527143Y-19037714D01*
X3498571Y-19037714D01*
X3470000Y-19023429D01*
X3455714Y-19009143D01*
X3441428Y-18980572D01*
X3427143Y-18923429D01*
X3427143Y-18852000D01*
X3441428Y-18794857D01*
X3455714Y-18766286D01*
X3470000Y-18752000D01*
X3498571Y-18737714D01*
X3727143Y-19009143D02*
X3741428Y-19023429D01*
X3727143Y-19037714D01*
X3712857Y-19023429D01*
X3727143Y-19009143D01*
X3727143Y-19037714D01*
X3912857Y-18866286D02*
X3884286Y-18852000D01*
X3870000Y-18837714D01*
X3855714Y-18809143D01*
X3855714Y-18794857D01*
X3870000Y-18766286D01*
X3884286Y-18752000D01*
X3912857Y-18737714D01*
X3970000Y-18737714D01*
X3998571Y-18752000D01*
X4012857Y-18766286D01*
X4027143Y-18794857D01*
X4027143Y-18809143D01*
X4012857Y-18837714D01*
X3998571Y-18852000D01*
X3970000Y-18866286D01*
X3912857Y-18866286D01*
X3884286Y-18880572D01*
X3870000Y-18894857D01*
X3855714Y-18923429D01*
X3855714Y-18980572D01*
X3870000Y-19009143D01*
X3884286Y-19023429D01*
X3912857Y-19037714D01*
X3970000Y-19037714D01*
X3998571Y-19023429D01*
X4012857Y-19009143D01*
X4027143Y-18980572D01*
X4027143Y-18923429D01*
X4012857Y-18894857D01*
X3998571Y-18880572D01*
X3970000Y-18866286D01*
X4312857Y-19037714D02*
X4141428Y-19037714D01*
X4227143Y-19037714D02*
X4227143Y-18737714D01*
X4198571Y-18780572D01*
X4170000Y-18809143D01*
X4141428Y-18823429D01*
X4441429Y-19037714D02*
X4441429Y-18837714D01*
X4441429Y-18866286D02*
X4455714Y-18852000D01*
X4484286Y-18837714D01*
X4527143Y-18837714D01*
X4555714Y-18852000D01*
X4570000Y-18880572D01*
X4570000Y-19037714D01*
X4570000Y-18880572D02*
X4584286Y-18852000D01*
X4612857Y-18837714D01*
X4655714Y-18837714D01*
X4684286Y-18852000D01*
X4698571Y-18880572D01*
X4698571Y-19037714D01*
X4841429Y-19037714D02*
X4841429Y-18837714D01*
X4841429Y-18866286D02*
X4855714Y-18852000D01*
X4884286Y-18837714D01*
X4927143Y-18837714D01*
X4955714Y-18852000D01*
X4970000Y-18880572D01*
X4970000Y-19037714D01*
X4970000Y-18880572D02*
X4984286Y-18852000D01*
X5012857Y-18837714D01*
X5055714Y-18837714D01*
X5084286Y-18852000D01*
X5098571Y-18880572D01*
X5098571Y-19037714D01*
X5684286Y-18723429D02*
X5427143Y-19109143D01*
X6070000Y-18737714D02*
X6098571Y-18737714D01*
X6127143Y-18752000D01*
X6141428Y-18766286D01*
X6155714Y-18794857D01*
X6170000Y-18852000D01*
X6170000Y-18923429D01*
X6155714Y-18980572D01*
X6141428Y-19009143D01*
X6127143Y-19023429D01*
X6098571Y-19037714D01*
X6070000Y-19037714D01*
X6041428Y-19023429D01*
X6027143Y-19009143D01*
X6012857Y-18980572D01*
X5998571Y-18923429D01*
X5998571Y-18852000D01*
X6012857Y-18794857D01*
X6027143Y-18766286D01*
X6041428Y-18752000D01*
X6070000Y-18737714D01*
X6298571Y-19009143D02*
X6312857Y-19023429D01*
X6298571Y-19037714D01*
X6284286Y-19023429D01*
X6298571Y-19009143D01*
X6298571Y-19037714D01*
X6498571Y-18737714D02*
X6527143Y-18737714D01*
X6555714Y-18752000D01*
X6570000Y-18766286D01*
X6584285Y-18794857D01*
X6598571Y-18852000D01*
X6598571Y-18923429D01*
X6584285Y-18980572D01*
X6570000Y-19009143D01*
X6555714Y-19023429D01*
X6527143Y-19037714D01*
X6498571Y-19037714D01*
X6470000Y-19023429D01*
X6455714Y-19009143D01*
X6441428Y-18980572D01*
X6427143Y-18923429D01*
X6427143Y-18852000D01*
X6441428Y-18794857D01*
X6455714Y-18766286D01*
X6470000Y-18752000D01*
X6498571Y-18737714D01*
X6698571Y-18737714D02*
X6884285Y-18737714D01*
X6784285Y-18852000D01*
X6827143Y-18852000D01*
X6855714Y-18866286D01*
X6870000Y-18880572D01*
X6884285Y-18909143D01*
X6884285Y-18980572D01*
X6870000Y-19009143D01*
X6855714Y-19023429D01*
X6827143Y-19037714D01*
X6741428Y-19037714D01*
X6712857Y-19023429D01*
X6698571Y-19009143D01*
X6998571Y-18766286D02*
X7012857Y-18752000D01*
X7041428Y-18737714D01*
X7112857Y-18737714D01*
X7141428Y-18752000D01*
X7155714Y-18766286D01*
X7170000Y-18794857D01*
X7170000Y-18823429D01*
X7155714Y-18866286D01*
X6984285Y-19037714D01*
X7170000Y-19037714D01*
X7284286Y-18737714D02*
X7284286Y-18794857D01*
X7398571Y-18737714D02*
X7398571Y-18794857D01*
X7841428Y-19152000D02*
X7827143Y-19137714D01*
X7798571Y-19094857D01*
X7784285Y-19066286D01*
X7770000Y-19023429D01*
X7755714Y-18952000D01*
X7755714Y-18894857D01*
X7770000Y-18823429D01*
X7784285Y-18780572D01*
X7798571Y-18752000D01*
X7827143Y-18709143D01*
X7841428Y-18694857D01*
X8098571Y-18737714D02*
X7955714Y-18737714D01*
X7941428Y-18880572D01*
X7955714Y-18866286D01*
X7984285Y-18852000D01*
X8055714Y-18852000D01*
X8084285Y-18866286D01*
X8098571Y-18880572D01*
X8112857Y-18909143D01*
X8112857Y-18980572D01*
X8098571Y-19009143D01*
X8084285Y-19023429D01*
X8055714Y-19037714D01*
X7984285Y-19037714D01*
X7955714Y-19023429D01*
X7941428Y-19009143D01*
X8227143Y-18766286D02*
X8241428Y-18752000D01*
X8270000Y-18737714D01*
X8341428Y-18737714D01*
X8370000Y-18752000D01*
X8384285Y-18766286D01*
X8398571Y-18794857D01*
X8398571Y-18823429D01*
X8384285Y-18866286D01*
X8212857Y-19037714D01*
X8398571Y-19037714D01*
X8755714Y-19037714D02*
X8755714Y-18737714D01*
X8884286Y-19037714D02*
X8884286Y-18880572D01*
X8870000Y-18852000D01*
X8841428Y-18837714D01*
X8798571Y-18837714D01*
X8770000Y-18852000D01*
X8755714Y-18866286D01*
X9070000Y-19037714D02*
X9041428Y-19023429D01*
X9027143Y-19009143D01*
X9012857Y-18980572D01*
X9012857Y-18894857D01*
X9027143Y-18866286D01*
X9041428Y-18852000D01*
X9070000Y-18837714D01*
X9112857Y-18837714D01*
X9141428Y-18852000D01*
X9155714Y-18866286D01*
X9170000Y-18894857D01*
X9170000Y-18980572D01*
X9155714Y-19009143D01*
X9141428Y-19023429D01*
X9112857Y-19037714D01*
X9070000Y-19037714D01*
X9341428Y-19037714D02*
X9312857Y-19023429D01*
X9298571Y-18994857D01*
X9298571Y-18737714D01*
X9570000Y-19023429D02*
X9541429Y-19037714D01*
X9484286Y-19037714D01*
X9455714Y-19023429D01*
X9441429Y-18994857D01*
X9441429Y-18880572D01*
X9455714Y-18852000D01*
X9484286Y-18837714D01*
X9541429Y-18837714D01*
X9570000Y-18852000D01*
X9584286Y-18880572D01*
X9584286Y-18909143D01*
X9441429Y-18937714D01*
X9698571Y-19023429D02*
X9727143Y-19037714D01*
X9784286Y-19037714D01*
X9812857Y-19023429D01*
X9827143Y-18994857D01*
X9827143Y-18980572D01*
X9812857Y-18952000D01*
X9784286Y-18937714D01*
X9741429Y-18937714D01*
X9712857Y-18923429D01*
X9698571Y-18894857D01*
X9698571Y-18880572D01*
X9712857Y-18852000D01*
X9741429Y-18837714D01*
X9784286Y-18837714D01*
X9812857Y-18852000D01*
X9927143Y-19152000D02*
X9941429Y-19137714D01*
X9970000Y-19094857D01*
X9984286Y-19066286D01*
X9998571Y-19023429D01*
X10012857Y-18952000D01*
X10012857Y-18894857D01*
X9998571Y-18823429D01*
X9984286Y-18780572D01*
X9970000Y-18752000D01*
X9941429Y-18709143D01*
X9927143Y-18694857D01*
X3155356Y-19333356D02*
X3155356Y-19262644D01*
X3084644Y-19262644D01*
X3084644Y-19333356D01*
X3155356Y-19333356D01*
X3598571Y-19433714D02*
X3427143Y-19433714D01*
X3512857Y-19433714D02*
X3512857Y-19133714D01*
X3484286Y-19176572D01*
X3455714Y-19205143D01*
X3427143Y-19219429D01*
X3727143Y-19405143D02*
X3741428Y-19419429D01*
X3727143Y-19433714D01*
X3712857Y-19419429D01*
X3727143Y-19405143D01*
X3727143Y-19433714D01*
X3927143Y-19133714D02*
X3955714Y-19133714D01*
X3984286Y-19148000D01*
X3998571Y-19162286D01*
X4012857Y-19190857D01*
X4027143Y-19248000D01*
X4027143Y-19319429D01*
X4012857Y-19376572D01*
X3998571Y-19405143D01*
X3984286Y-19419429D01*
X3955714Y-19433714D01*
X3927143Y-19433714D01*
X3898571Y-19419429D01*
X3884286Y-19405143D01*
X3870000Y-19376572D01*
X3855714Y-19319429D01*
X3855714Y-19248000D01*
X3870000Y-19190857D01*
X3884286Y-19162286D01*
X3898571Y-19148000D01*
X3927143Y-19133714D01*
X4212857Y-19133714D02*
X4241429Y-19133714D01*
X4270000Y-19148000D01*
X4284286Y-19162286D01*
X4298571Y-19190857D01*
X4312857Y-19248000D01*
X4312857Y-19319429D01*
X4298571Y-19376572D01*
X4284286Y-19405143D01*
X4270000Y-19419429D01*
X4241429Y-19433714D01*
X4212857Y-19433714D01*
X4184286Y-19419429D01*
X4170000Y-19405143D01*
X4155714Y-19376572D01*
X4141428Y-19319429D01*
X4141428Y-19248000D01*
X4155714Y-19190857D01*
X4170000Y-19162286D01*
X4184286Y-19148000D01*
X4212857Y-19133714D01*
X4441429Y-19433714D02*
X4441429Y-19233714D01*
X4441429Y-19262286D02*
X4455714Y-19248000D01*
X4484286Y-19233714D01*
X4527143Y-19233714D01*
X4555714Y-19248000D01*
X4570000Y-19276572D01*
X4570000Y-19433714D01*
X4570000Y-19276572D02*
X4584286Y-19248000D01*
X4612857Y-19233714D01*
X4655714Y-19233714D01*
X4684286Y-19248000D01*
X4698571Y-19276572D01*
X4698571Y-19433714D01*
X4841429Y-19433714D02*
X4841429Y-19233714D01*
X4841429Y-19262286D02*
X4855714Y-19248000D01*
X4884286Y-19233714D01*
X4927143Y-19233714D01*
X4955714Y-19248000D01*
X4970000Y-19276572D01*
X4970000Y-19433714D01*
X4970000Y-19276572D02*
X4984286Y-19248000D01*
X5012857Y-19233714D01*
X5055714Y-19233714D01*
X5084286Y-19248000D01*
X5098571Y-19276572D01*
X5098571Y-19433714D01*
X5684286Y-19119429D02*
X5427143Y-19505143D01*
X6070000Y-19133714D02*
X6098571Y-19133714D01*
X6127143Y-19148000D01*
X6141428Y-19162286D01*
X6155714Y-19190857D01*
X6170000Y-19248000D01*
X6170000Y-19319429D01*
X6155714Y-19376572D01*
X6141428Y-19405143D01*
X6127143Y-19419429D01*
X6098571Y-19433714D01*
X6070000Y-19433714D01*
X6041428Y-19419429D01*
X6027143Y-19405143D01*
X6012857Y-19376572D01*
X5998571Y-19319429D01*
X5998571Y-19248000D01*
X6012857Y-19190857D01*
X6027143Y-19162286D01*
X6041428Y-19148000D01*
X6070000Y-19133714D01*
X6298571Y-19405143D02*
X6312857Y-19419429D01*
X6298571Y-19433714D01*
X6284286Y-19419429D01*
X6298571Y-19405143D01*
X6298571Y-19433714D01*
X6498571Y-19133714D02*
X6527143Y-19133714D01*
X6555714Y-19148000D01*
X6570000Y-19162286D01*
X6584285Y-19190857D01*
X6598571Y-19248000D01*
X6598571Y-19319429D01*
X6584285Y-19376572D01*
X6570000Y-19405143D01*
X6555714Y-19419429D01*
X6527143Y-19433714D01*
X6498571Y-19433714D01*
X6470000Y-19419429D01*
X6455714Y-19405143D01*
X6441428Y-19376572D01*
X6427143Y-19319429D01*
X6427143Y-19248000D01*
X6441428Y-19190857D01*
X6455714Y-19162286D01*
X6470000Y-19148000D01*
X6498571Y-19133714D01*
X6698571Y-19133714D02*
X6884285Y-19133714D01*
X6784285Y-19248000D01*
X6827143Y-19248000D01*
X6855714Y-19262286D01*
X6870000Y-19276572D01*
X6884285Y-19305143D01*
X6884285Y-19376572D01*
X6870000Y-19405143D01*
X6855714Y-19419429D01*
X6827143Y-19433714D01*
X6741428Y-19433714D01*
X6712857Y-19419429D01*
X6698571Y-19405143D01*
X7027143Y-19433714D02*
X7084285Y-19433714D01*
X7112857Y-19419429D01*
X7127143Y-19405143D01*
X7155714Y-19362286D01*
X7170000Y-19305143D01*
X7170000Y-19190857D01*
X7155714Y-19162286D01*
X7141428Y-19148000D01*
X7112857Y-19133714D01*
X7055714Y-19133714D01*
X7027143Y-19148000D01*
X7012857Y-19162286D01*
X6998571Y-19190857D01*
X6998571Y-19262286D01*
X7012857Y-19290857D01*
X7027143Y-19305143D01*
X7055714Y-19319429D01*
X7112857Y-19319429D01*
X7141428Y-19305143D01*
X7155714Y-19290857D01*
X7170000Y-19262286D01*
X7284286Y-19133714D02*
X7284286Y-19190857D01*
X7398571Y-19133714D02*
X7398571Y-19190857D01*
X7841428Y-19548000D02*
X7827143Y-19533714D01*
X7798571Y-19490857D01*
X7784285Y-19462286D01*
X7770000Y-19419429D01*
X7755714Y-19348000D01*
X7755714Y-19290857D01*
X7770000Y-19219429D01*
X7784285Y-19176572D01*
X7798571Y-19148000D01*
X7827143Y-19105143D01*
X7841428Y-19090857D01*
X8112857Y-19433714D02*
X7941428Y-19433714D01*
X8027143Y-19433714D02*
X8027143Y-19133714D01*
X7998571Y-19176572D01*
X7970000Y-19205143D01*
X7941428Y-19219429D01*
X8370000Y-19233714D02*
X8370000Y-19433714D01*
X8298571Y-19119429D02*
X8227143Y-19333714D01*
X8412857Y-19333714D01*
X8655714Y-19133714D02*
X8598571Y-19133714D01*
X8570000Y-19148000D01*
X8555714Y-19162286D01*
X8527143Y-19205143D01*
X8512857Y-19262286D01*
X8512857Y-19376572D01*
X8527143Y-19405143D01*
X8541428Y-19419429D01*
X8570000Y-19433714D01*
X8627143Y-19433714D01*
X8655714Y-19419429D01*
X8670000Y-19405143D01*
X8684286Y-19376572D01*
X8684286Y-19305143D01*
X8670000Y-19276572D01*
X8655714Y-19262286D01*
X8627143Y-19248000D01*
X8570000Y-19248000D01*
X8541428Y-19262286D01*
X8527143Y-19276572D01*
X8512857Y-19305143D01*
X9041428Y-19433714D02*
X9041428Y-19133714D01*
X9170000Y-19433714D02*
X9170000Y-19276572D01*
X9155714Y-19248000D01*
X9127143Y-19233714D01*
X9084286Y-19233714D01*
X9055714Y-19248000D01*
X9041428Y-19262286D01*
X9355714Y-19433714D02*
X9327143Y-19419429D01*
X9312857Y-19405143D01*
X9298571Y-19376572D01*
X9298571Y-19290857D01*
X9312857Y-19262286D01*
X9327143Y-19248000D01*
X9355714Y-19233714D01*
X9398571Y-19233714D01*
X9427143Y-19248000D01*
X9441428Y-19262286D01*
X9455714Y-19290857D01*
X9455714Y-19376572D01*
X9441428Y-19405143D01*
X9427143Y-19419429D01*
X9398571Y-19433714D01*
X9355714Y-19433714D01*
X9627143Y-19433714D02*
X9598571Y-19419429D01*
X9584286Y-19390857D01*
X9584286Y-19133714D01*
X9855714Y-19419429D02*
X9827143Y-19433714D01*
X9770000Y-19433714D01*
X9741429Y-19419429D01*
X9727143Y-19390857D01*
X9727143Y-19276572D01*
X9741429Y-19248000D01*
X9770000Y-19233714D01*
X9827143Y-19233714D01*
X9855714Y-19248000D01*
X9870000Y-19276572D01*
X9870000Y-19305143D01*
X9727143Y-19333714D01*
X9984286Y-19419429D02*
X10012857Y-19433714D01*
X10070000Y-19433714D01*
X10098571Y-19419429D01*
X10112857Y-19390857D01*
X10112857Y-19376572D01*
X10098571Y-19348000D01*
X10070000Y-19333714D01*
X10027143Y-19333714D01*
X9998571Y-19319429D01*
X9984286Y-19290857D01*
X9984286Y-19276572D01*
X9998571Y-19248000D01*
X10027143Y-19233714D01*
X10070000Y-19233714D01*
X10098571Y-19248000D01*
X10212857Y-19548000D02*
X10227143Y-19533714D01*
X10255714Y-19490857D01*
X10270000Y-19462286D01*
X10284286Y-19419429D01*
X10298571Y-19348000D01*
X10298571Y-19290857D01*
X10284286Y-19219429D01*
X10270000Y-19176572D01*
X10255714Y-19148000D01*
X10227143Y-19105143D01*
X10212857Y-19090857D01*
M02*
