G04 #@! TF.FileFunction,Soldermask,Top*
%FSLAX46Y46*%
G04 Gerber Fmt 4.6, Leading zero omitted, Abs format (unit mm)*
G04 Created by KiCad (PCBNEW 4.0.5) date 04/19/17 20:50:32*
%MOMM*%
%LPD*%
G01*
G04 APERTURE LIST*
%ADD10C,0.127000*%
%ADD11R,1.752400X1.752400*%
%ADD12O,1.752400X1.752400*%
%ADD13R,1.852400X1.852400*%
%ADD14O,1.852400X1.852400*%
%ADD15C,1.549400*%
G04 APERTURE END LIST*
D10*
D11*
X58420000Y-73660000D03*
D12*
X73660000Y-121920000D03*
X58420000Y-76200000D03*
X73660000Y-119380000D03*
X58420000Y-78740000D03*
X73660000Y-116840000D03*
X58420000Y-81280000D03*
X73660000Y-114300000D03*
X58420000Y-83820000D03*
X73660000Y-111760000D03*
X58420000Y-86360000D03*
X73660000Y-109220000D03*
X58420000Y-88900000D03*
X73660000Y-106680000D03*
X58420000Y-91440000D03*
X73660000Y-104140000D03*
X58420000Y-93980000D03*
X73660000Y-101600000D03*
X58420000Y-96520000D03*
X73660000Y-99060000D03*
X58420000Y-99060000D03*
X73660000Y-96520000D03*
X58420000Y-101600000D03*
X73660000Y-93980000D03*
X58420000Y-104140000D03*
X73660000Y-91440000D03*
X58420000Y-106680000D03*
X73660000Y-88900000D03*
X58420000Y-109220000D03*
X73660000Y-86360000D03*
X58420000Y-111760000D03*
X73660000Y-83820000D03*
X58420000Y-114300000D03*
X73660000Y-81280000D03*
X58420000Y-116840000D03*
X73660000Y-78740000D03*
X58420000Y-119380000D03*
X73660000Y-76200000D03*
X58420000Y-121920000D03*
X73660000Y-73660000D03*
D11*
X93980000Y-76200000D03*
D12*
X109220000Y-109220000D03*
X93980000Y-78740000D03*
X109220000Y-106680000D03*
X93980000Y-81280000D03*
X109220000Y-104140000D03*
X93980000Y-83820000D03*
X109220000Y-101600000D03*
X93980000Y-86360000D03*
X109220000Y-99060000D03*
X93980000Y-88900000D03*
X109220000Y-96520000D03*
X93980000Y-91440000D03*
X109220000Y-93980000D03*
X93980000Y-93980000D03*
X109220000Y-91440000D03*
X93980000Y-96520000D03*
X109220000Y-88900000D03*
X93980000Y-99060000D03*
X109220000Y-86360000D03*
X93980000Y-101600000D03*
X109220000Y-83820000D03*
X93980000Y-104140000D03*
X109220000Y-81280000D03*
X93980000Y-106680000D03*
X109220000Y-78740000D03*
X93980000Y-109220000D03*
X109220000Y-76200000D03*
D13*
X35560000Y-72390000D03*
D14*
X38100000Y-72390000D03*
X35560000Y-74930000D03*
X38100000Y-74930000D03*
X35560000Y-77470000D03*
X38100000Y-77470000D03*
X35560000Y-80010000D03*
X38100000Y-80010000D03*
X35560000Y-82550000D03*
X38100000Y-82550000D03*
X35560000Y-85090000D03*
X38100000Y-85090000D03*
X35560000Y-87630000D03*
X38100000Y-87630000D03*
X35560000Y-90170000D03*
X38100000Y-90170000D03*
X35560000Y-92710000D03*
X38100000Y-92710000D03*
X35560000Y-95250000D03*
X38100000Y-95250000D03*
X35560000Y-97790000D03*
X38100000Y-97790000D03*
X35560000Y-100330000D03*
X38100000Y-100330000D03*
X35560000Y-102870000D03*
X38100000Y-102870000D03*
X35560000Y-105410000D03*
X38100000Y-105410000D03*
X35560000Y-107950000D03*
X38100000Y-107950000D03*
X35560000Y-110490000D03*
X38100000Y-110490000D03*
X35560000Y-113030000D03*
X38100000Y-113030000D03*
X35560000Y-115570000D03*
X38100000Y-115570000D03*
X35560000Y-118110000D03*
X38100000Y-118110000D03*
X35560000Y-120650000D03*
X38100000Y-120650000D03*
D13*
X129540000Y-121920000D03*
D14*
X132080000Y-121920000D03*
D13*
X130810000Y-110490000D03*
D14*
X128270000Y-110490000D03*
D13*
X130810000Y-93980000D03*
D14*
X128270000Y-93980000D03*
D13*
X154940000Y-74930000D03*
D14*
X152400000Y-74930000D03*
D13*
X154940000Y-67310000D03*
D14*
X152400000Y-67310000D03*
D13*
X44450000Y-165100000D03*
D14*
X44450000Y-162560000D03*
X46990000Y-165100000D03*
X46990000Y-162560000D03*
X49530000Y-165100000D03*
X49530000Y-162560000D03*
X52070000Y-165100000D03*
X52070000Y-162560000D03*
X54610000Y-165100000D03*
X54610000Y-162560000D03*
X57150000Y-165100000D03*
X57150000Y-162560000D03*
X59690000Y-165100000D03*
X59690000Y-162560000D03*
X62230000Y-165100000D03*
X62230000Y-162560000D03*
X64770000Y-165100000D03*
X64770000Y-162560000D03*
X67310000Y-165100000D03*
X67310000Y-162560000D03*
X69850000Y-165100000D03*
X69850000Y-162560000D03*
X72390000Y-165100000D03*
X72390000Y-162560000D03*
X74930000Y-165100000D03*
X74930000Y-162560000D03*
X77470000Y-165100000D03*
X77470000Y-162560000D03*
X80010000Y-165100000D03*
X80010000Y-162560000D03*
X82550000Y-165100000D03*
X82550000Y-162560000D03*
X85090000Y-165100000D03*
X85090000Y-162560000D03*
X87630000Y-165100000D03*
X87630000Y-162560000D03*
X90170000Y-165100000D03*
X90170000Y-162560000D03*
X92710000Y-165100000D03*
X92710000Y-162560000D03*
X95250000Y-165100000D03*
X95250000Y-162560000D03*
X97790000Y-165100000D03*
X97790000Y-162560000D03*
X100330000Y-165100000D03*
X100330000Y-162560000D03*
D13*
X39370000Y-157480000D03*
D14*
X41910000Y-157480000D03*
X44450000Y-157480000D03*
X46990000Y-157480000D03*
X49530000Y-157480000D03*
X52070000Y-157480000D03*
X54610000Y-157480000D03*
X57150000Y-157480000D03*
D13*
X100330000Y-157480000D03*
D14*
X102870000Y-157480000D03*
X105410000Y-157480000D03*
X107950000Y-157480000D03*
X110490000Y-157480000D03*
X113030000Y-157480000D03*
X115570000Y-157480000D03*
X118110000Y-157480000D03*
D13*
X85090000Y-157480000D03*
D14*
X82550000Y-157480000D03*
X80010000Y-157480000D03*
X77470000Y-157480000D03*
X74930000Y-157480000D03*
X72390000Y-157480000D03*
X69850000Y-157480000D03*
X67310000Y-157480000D03*
D13*
X146050000Y-157480000D03*
D14*
X143510000Y-157480000D03*
X140970000Y-157480000D03*
X138430000Y-157480000D03*
X135890000Y-157480000D03*
X133350000Y-157480000D03*
X130810000Y-157480000D03*
X128270000Y-157480000D03*
D13*
X109220000Y-163830000D03*
D14*
X111760000Y-163830000D03*
X114300000Y-163830000D03*
X116840000Y-163830000D03*
X119380000Y-163830000D03*
X121920000Y-163830000D03*
X124460000Y-163830000D03*
X127000000Y-163830000D03*
X129540000Y-163830000D03*
X132080000Y-163830000D03*
X134620000Y-163830000D03*
D13*
X140970000Y-87630000D03*
D14*
X140970000Y-90170000D03*
X140970000Y-92710000D03*
D15*
X133350000Y-88900000D03*
X135890000Y-88900000D03*
X92710000Y-130810000D03*
X90170000Y-130810000D03*
X133350000Y-85090000D03*
X135890000Y-85090000D03*
X113030000Y-78740000D03*
X113030000Y-76200000D03*
X62230000Y-125730000D03*
X62230000Y-128270000D03*
X58420000Y-125730000D03*
X58420000Y-128270000D03*
X144780000Y-110490000D03*
X144780000Y-113030000D03*
X142240000Y-120650000D03*
X144780000Y-120650000D03*
X140970000Y-101600000D03*
X138430000Y-101600000D03*
X130810000Y-114300000D03*
X133350000Y-114300000D03*
X127000000Y-114300000D03*
X127000000Y-116840000D03*
X154940000Y-81280000D03*
X152400000Y-81280000D03*
X92710000Y-125730000D03*
X90170000Y-125730000D03*
X140970000Y-163830000D03*
X143510000Y-163830000D03*
X114300000Y-96520000D03*
X116840000Y-96520000D03*
X146050000Y-132080000D03*
X146050000Y-129540000D03*
X39370000Y-161290000D03*
X36830000Y-161290000D03*
X39370000Y-165100000D03*
X36830000Y-165100000D03*
D11*
X86360000Y-125730000D03*
D12*
X71120000Y-133350000D03*
X83820000Y-125730000D03*
X73660000Y-133350000D03*
X81280000Y-125730000D03*
X76200000Y-133350000D03*
X78740000Y-125730000D03*
X78740000Y-133350000D03*
X76200000Y-125730000D03*
X81280000Y-133350000D03*
X73660000Y-125730000D03*
X83820000Y-133350000D03*
X71120000Y-125730000D03*
X86360000Y-133350000D03*
D11*
X36830000Y-152400000D03*
D12*
X59690000Y-144780000D03*
X39370000Y-152400000D03*
X57150000Y-144780000D03*
X41910000Y-152400000D03*
X54610000Y-144780000D03*
X44450000Y-152400000D03*
X52070000Y-144780000D03*
X46990000Y-152400000D03*
X49530000Y-144780000D03*
X49530000Y-152400000D03*
X46990000Y-144780000D03*
X52070000Y-152400000D03*
X44450000Y-144780000D03*
X54610000Y-152400000D03*
X41910000Y-144780000D03*
X57150000Y-152400000D03*
X39370000Y-144780000D03*
X59690000Y-152400000D03*
X36830000Y-144780000D03*
D11*
X97790000Y-152400000D03*
D12*
X120650000Y-144780000D03*
X100330000Y-152400000D03*
X118110000Y-144780000D03*
X102870000Y-152400000D03*
X115570000Y-144780000D03*
X105410000Y-152400000D03*
X113030000Y-144780000D03*
X107950000Y-152400000D03*
X110490000Y-144780000D03*
X110490000Y-152400000D03*
X107950000Y-144780000D03*
X113030000Y-152400000D03*
X105410000Y-144780000D03*
X115570000Y-152400000D03*
X102870000Y-144780000D03*
X118110000Y-152400000D03*
X100330000Y-144780000D03*
X120650000Y-152400000D03*
X97790000Y-144780000D03*
D11*
X90170000Y-144780000D03*
D12*
X67310000Y-152400000D03*
X87630000Y-144780000D03*
X69850000Y-152400000D03*
X85090000Y-144780000D03*
X72390000Y-152400000D03*
X82550000Y-144780000D03*
X74930000Y-152400000D03*
X80010000Y-144780000D03*
X77470000Y-152400000D03*
X77470000Y-144780000D03*
X80010000Y-152400000D03*
X74930000Y-144780000D03*
X82550000Y-152400000D03*
X72390000Y-144780000D03*
X85090000Y-152400000D03*
X69850000Y-144780000D03*
X87630000Y-152400000D03*
X67310000Y-144780000D03*
X90170000Y-152400000D03*
D11*
X151130000Y-144780000D03*
D12*
X128270000Y-152400000D03*
X148590000Y-144780000D03*
X130810000Y-152400000D03*
X146050000Y-144780000D03*
X133350000Y-152400000D03*
X143510000Y-144780000D03*
X135890000Y-152400000D03*
X140970000Y-144780000D03*
X138430000Y-152400000D03*
X138430000Y-144780000D03*
X140970000Y-152400000D03*
X135890000Y-144780000D03*
X143510000Y-152400000D03*
X133350000Y-144780000D03*
X146050000Y-152400000D03*
X130810000Y-144780000D03*
X148590000Y-152400000D03*
X128270000Y-144780000D03*
X151130000Y-152400000D03*
D11*
X115570000Y-114300000D03*
D12*
X123190000Y-121920000D03*
X115570000Y-116840000D03*
X123190000Y-119380000D03*
X115570000Y-119380000D03*
X123190000Y-116840000D03*
X115570000Y-121920000D03*
X123190000Y-114300000D03*
D11*
X125730000Y-99060000D03*
D12*
X133350000Y-106680000D03*
X125730000Y-101600000D03*
X133350000Y-104140000D03*
X125730000Y-104140000D03*
X133350000Y-101600000D03*
X125730000Y-106680000D03*
X133350000Y-99060000D03*
D11*
X149860000Y-110490000D03*
D12*
X157480000Y-125730000D03*
X149860000Y-113030000D03*
X157480000Y-123190000D03*
X149860000Y-115570000D03*
X157480000Y-120650000D03*
X149860000Y-118110000D03*
X157480000Y-118110000D03*
X149860000Y-120650000D03*
X157480000Y-115570000D03*
X149860000Y-123190000D03*
X157480000Y-113030000D03*
X149860000Y-125730000D03*
X157480000Y-110490000D03*
D11*
X149860000Y-86360000D03*
D12*
X157480000Y-101600000D03*
X149860000Y-88900000D03*
X157480000Y-99060000D03*
X149860000Y-91440000D03*
X157480000Y-96520000D03*
X149860000Y-93980000D03*
X157480000Y-93980000D03*
X149860000Y-96520000D03*
X157480000Y-91440000D03*
X149860000Y-99060000D03*
X157480000Y-88900000D03*
X149860000Y-101600000D03*
X157480000Y-86360000D03*
D13*
X118110000Y-133350000D03*
D14*
X120650000Y-133350000D03*
D15*
X58420000Y-133350000D03*
X58420000Y-130810000D03*
X62230000Y-133350000D03*
X62230000Y-130810000D03*
X153670000Y-129540000D03*
X151130000Y-129540000D03*
D13*
X35560000Y-128270000D03*
X35560000Y-134620000D03*
D15*
X120650000Y-78740000D03*
X123190000Y-78740000D03*
X120650000Y-82550000D03*
X123190000Y-82550000D03*
X120650000Y-90170000D03*
X123190000Y-90170000D03*
X120650000Y-86360000D03*
X123190000Y-86360000D03*
X120650000Y-93980000D03*
X123190000Y-93980000D03*
M02*
